<svg width="16" height="18" viewBox="0 0 16 18" fill="none" xmlns="http://www.w3.org/2000/svg">
<g clip-path="url(#clip0_42_75)">
<path d="M16 8.47055C15.9998 6.94176 15.5615 5.44505 14.737 4.15761C13.9126 2.87018 12.7365 1.84592 11.3481 1.20611C9.95962 0.566297 8.4169 0.337719 6.90257 0.547437C5.38823 0.757154 3.9657 1.39639 2.80337 2.38945C1.64104 3.38252 0.787596 4.68784 0.344069 6.15088C-0.099457 7.61391 -0.114491 9.1734 0.300748 10.6447C0.715987 12.116 1.54411 13.4376 2.68708 14.4528C3.83004 15.4681 5.23999 16.1347 6.75 16.3735V10.7835H4.719V8.47055H6.75V6.70855C6.75 4.70355 7.944 3.59555 9.772 3.59555C10.647 3.59555 11.562 3.75155 11.562 3.75155V5.72155H10.554C9.56 5.72155 9.25 6.33755 9.25 6.97155V8.47155H11.469L11.114 10.7835H9.25V16.3735C11.1317 16.0755 12.8454 15.1158 14.0827 13.6671C15.32 12.2184 15.9999 10.3757 16 8.47055Z" fill="#FF6435"/>
</g>
<defs>
<clipPath id="clip0_42_75">
<rect width="16" height="17" fill="white" transform="translate(0 0.308594)"/>
</clipPath>
</defs>
</svg>
