<svg width="15" height="16" viewBox="0 0 15 16" fill="none" xmlns="http://www.w3.org/2000/svg">
<g clip-path="url(#clip0_42_78)">
<path d="M10.625 1.55859H4.375C2.64911 1.55859 1.25 2.9577 1.25 4.68359V10.9336C1.25 12.6595 2.64911 14.0586 4.375 14.0586H10.625C12.3509 14.0586 13.75 12.6595 13.75 10.9336V4.68359C13.75 2.9577 12.3509 1.55859 10.625 1.55859Z" stroke="#FF6435" stroke-width="1.5" stroke-linecap="round" stroke-linejoin="round"/>
<path d="M10.0003 7.41479C10.0774 7.93494 9.98859 8.46617 9.7464 8.93292C9.50422 9.39967 9.12102 9.77817 8.65132 10.0146C8.18162 10.251 7.64933 10.3333 7.13017 10.2497C6.61101 10.1662 6.13141 9.92109 5.75958 9.54926C5.38775 9.17744 5.14264 8.69783 5.0591 8.17867C4.97556 7.65951 5.05785 7.12722 5.29426 6.65752C5.53067 6.18782 5.90917 5.80463 6.37592 5.56244C6.84267 5.32025 7.3739 5.23141 7.89406 5.30854C8.42463 5.38722 8.91584 5.63445 9.29511 6.01373C9.67439 6.39301 9.92163 6.88421 10.0003 7.41479Z" stroke="#FF6435" stroke-width="1.5" stroke-linecap="round" stroke-linejoin="round"/>
<path d="M10.9375 4.37109H10.9438" stroke="#FF6435" stroke-width="1.5" stroke-linecap="round" stroke-linejoin="round"/>
</g>
<defs>
<clipPath id="clip0_42_78">
<rect width="15" height="15" fill="white" transform="translate(0 0.308594)"/>
</clipPath>
</defs>
</svg>
