<svg width="16" height="18" viewBox="0 0 16 18" fill="none" xmlns="http://www.w3.org/2000/svg">
<g clip-path="url(#clip0_42_85)">
<path d="M14.816 0.470581H1.18C0.528 0.470581 0 0.986581 0 1.62358V15.3136C0.00343032 15.6235 0.129723 15.9195 0.351149 16.1364C0.572575 16.3533 0.871036 16.4735 1.181 16.4706H14.816C15.469 16.4706 16 15.9516 16 15.3176V1.62358C16 0.986581 15.469 0.470581 14.816 0.470581ZM4.746 14.1056H2.373V6.46758H4.748V14.1056H4.746ZM3.56 5.42558C3.37626 5.4308 3.19333 5.39914 3.02203 5.33249C2.85072 5.26584 2.6945 5.16554 2.5626 5.03752C2.4307 4.90949 2.32579 4.75634 2.25406 4.58709C2.18233 4.41785 2.14523 4.23595 2.14496 4.05214C2.1447 3.86832 2.18126 3.68631 2.2525 3.51686C2.32374 3.34741 2.42821 3.19395 2.55974 3.06555C2.69126 2.93714 2.84719 2.83638 3.0183 2.76923C3.18941 2.70209 3.37224 2.6699 3.556 2.67458C3.91441 2.68371 4.2551 2.83237 4.50555 3.08891C4.75601 3.34545 4.89644 3.68961 4.89696 4.04813C4.89748 4.40666 4.75805 4.75123 4.50834 5.00849C4.25864 5.26576 3.91838 5.41541 3.56 5.42558ZM13.635 14.1036H11.263V10.3916C11.263 9.50758 11.248 8.36658 10.029 8.36658C8.795 8.36658 8.607 9.33258 8.607 10.3296V14.1036H6.237V6.46858H8.512V7.51258H8.544C8.859 6.91258 9.634 6.27758 10.787 6.27758C13.191 6.27758 13.634 7.85958 13.634 9.91558V14.1056L13.635 14.1036Z" fill="#FF6435"/>
</g>
<defs>
<clipPath id="clip0_42_85">
<rect width="16" height="17" fill="white" transform="translate(0 0.308594)"/>
</clipPath>
</defs>
</svg>
