<svg width="16" height="18" viewBox="0 0 16 18" fill="none" xmlns="http://www.w3.org/2000/svg">
<g clip-path="url(#clip0_42_82)">
<path d="M5.033 14.9716C11.07 14.9716 14.373 9.96864 14.373 5.63164C14.373 5.49164 14.369 5.34764 14.363 5.20764C15.0054 4.74283 15.5598 4.16715 16 3.50764C15.4017 3.77397 14.7665 3.94795 14.116 4.02364C14.8007 3.61311 15.3134 2.96827 15.559 2.20864C14.9148 2.59022 14.2105 2.85939 13.476 3.00464C12.9809 2.47853 12.3262 2.13019 11.6132 2.0135C10.9003 1.89681 10.1687 2.01827 9.53168 2.35909C8.89466 2.69991 8.38768 3.2411 8.08912 3.89899C7.79056 4.55687 7.71707 5.29479 7.88 5.99864C6.57521 5.93329 5.29873 5.59444 4.13331 5.00406C2.96789 4.41369 1.93956 3.58497 1.115 2.57164C0.696023 3.29413 0.567871 4.14904 0.756592 4.96262C0.945312 5.77619 1.43674 6.48739 2.131 6.95164C1.60991 6.93516 1.10022 6.79497 0.644 6.54264V6.58264C0.643208 7.3411 0.90521 8.0764 1.38543 8.66346C1.86566 9.25052 2.53444 9.65308 3.278 9.80264C2.79507 9.93406 2.28847 9.95321 1.797 9.85864C2.00691 10.5106 2.41504 11.0807 2.96447 11.4896C3.5139 11.8985 4.17725 12.1258 4.862 12.1396C4.18072 12.6746 3.40055 13.0698 2.56624 13.3027C1.73192 13.5355 0.859842 13.6015 0 13.4966C1.5017 14.4604 3.24867 14.9723 5.033 14.9716Z" fill="#FF6435"/>
</g>
<defs>
<clipPath id="clip0_42_82">
<rect width="16" height="17" fill="white" transform="translate(0 0.308594)"/>
</clipPath>
</defs>
</svg>
