<svg width="634" height="435" viewBox="0 0 634 435" fill="none" xmlns="http://www.w3.org/2000/svg">
<g filter="url(#filter0_dd_12_678)">
<rect x="27" y="3.5" width="580" height="49" rx="16" fill="white" shape-rendering="crispEdges"/>
<path d="M54.8013 33.5H52.0813V22.14H54.8013V26.636L58.7213 22.14H61.8093L57.5213 26.924L62.0013 33.5H58.9133L55.6973 28.732L54.8013 29.724V33.5ZM65.9105 33.708C63.2065 33.708 61.5425 32.028 61.5425 29.436V29.276C61.5425 26.732 63.2545 25.02 65.9105 25.02C68.7905 25.02 70.2305 27.036 70.0545 29.948H64.0865C64.1985 31.212 64.7905 31.82 65.8945 31.82C66.8065 31.82 67.3185 31.372 67.4945 30.844H70.0065C69.6065 32.588 68.1185 33.708 65.9105 33.708ZM64.1185 28.46H67.4785C67.4145 27.516 66.9025 26.908 65.8785 26.908C64.8545 26.908 64.2945 27.388 64.1185 28.46ZM74.8156 36.22H72.1756L73.2636 33.404L70.1276 25.228H72.8316L74.6076 30.652L76.3356 25.228H78.9436L74.8156 36.22ZM87.9078 33.708C84.4518 33.708 82.3238 31.324 82.3238 27.98V27.66C82.3238 24.316 84.5318 21.932 87.9238 21.932C90.8678 21.932 92.8198 23.772 92.9798 26.54H90.2598C90.1478 25.02 89.2518 24.156 87.8758 24.156C86.0998 24.156 85.1238 25.564 85.1238 27.66V27.98C85.1238 30.076 86.1158 31.468 87.8918 31.468C89.2678 31.468 90.1798 30.572 90.2438 28.988H92.9638C92.8198 31.82 90.9318 33.708 87.9078 33.708ZM98.1754 33.708C95.5674 33.708 93.8394 31.948 93.8394 29.436V29.276C93.8394 26.78 95.5674 25.02 98.1754 25.02C100.799 25.02 102.511 26.78 102.511 29.276V29.436C102.511 31.948 100.799 33.708 98.1754 33.708ZM98.1754 31.756C99.3914 31.756 99.9194 30.956 99.9194 29.436V29.276C99.9194 27.772 99.3914 26.972 98.1754 26.972C96.9754 26.972 96.4314 27.772 96.4314 29.276V29.436C96.4314 30.956 96.9754 31.756 98.1754 31.756ZM106.312 33.5H103.752V25.228H106.2L106.264 26.492C106.664 25.756 107.48 25.02 108.872 25.02C110.968 25.02 111.752 26.348 111.752 28.188V33.5H109.192V28.844C109.192 27.724 108.84 27.068 107.864 27.068C106.936 27.068 106.312 27.74 106.312 28.956V33.5ZM116.758 33.708C114.326 33.708 112.965 32.636 112.838 30.844H115.27C115.366 31.548 115.926 31.948 116.774 31.948C117.542 31.948 118.006 31.644 118.006 31.164C118.006 30.716 117.734 30.444 116.262 30.188C114.054 29.836 113.078 29.132 113.078 27.644C113.078 26.06 114.534 25.02 116.678 25.02C118.902 25.02 120.23 26.028 120.358 27.74H117.974C117.91 27.1 117.398 26.764 116.646 26.764C115.942 26.764 115.526 27.052 115.526 27.5C115.526 27.948 115.862 28.188 117.27 28.396C119.606 28.732 120.517 29.516 120.517 30.924C120.517 32.588 119.078 33.708 116.758 33.708ZM124.282 21.66V24.236H121.626V21.66H124.282ZM121.674 25.228H124.234V33.5H121.674V25.228ZM129.08 33.708C126.84 33.708 125.464 31.9 125.464 29.436V29.276C125.464 26.86 126.776 25.02 129 25.02C130.184 25.02 131.032 25.58 131.496 26.316V21.66H134.072V33.5H131.688L131.608 32.172C131.272 32.94 130.408 33.708 129.08 33.708ZM129.816 31.772C131 31.772 131.576 30.956 131.576 29.436V29.276C131.576 27.74 131 26.94 129.816 26.94C128.632 26.94 128.056 27.74 128.056 29.276V29.436C128.056 30.956 128.632 31.772 129.816 31.772ZM139.676 33.708C136.972 33.708 135.308 32.028 135.308 29.436V29.276C135.308 26.732 137.02 25.02 139.676 25.02C142.556 25.02 143.996 27.036 143.82 29.948H137.852C137.964 31.212 138.556 31.82 139.66 31.82C140.572 31.82 141.084 31.372 141.26 30.844H143.772C143.372 32.588 141.884 33.708 139.676 33.708ZM137.884 28.46H141.244C141.18 27.516 140.668 26.908 139.644 26.908C138.62 26.908 138.06 27.388 137.884 28.46ZM147.64 33.5H145.08V25.228H147.528L147.576 26.844C147.96 25.884 148.744 25.084 149.992 25.084C150.168 25.084 150.36 25.1 150.504 25.132V27.58C150.328 27.564 150.072 27.548 149.832 27.548C148.344 27.548 147.64 28.284 147.64 29.644V33.5ZM153.605 33.708C152.005 33.708 150.885 32.652 150.885 31.196C150.885 29.772 151.797 28.924 153.381 28.732L156.261 28.348V27.82C156.261 27.212 155.861 26.844 155.029 26.844C154.197 26.844 153.717 27.18 153.653 27.804H151.221C151.317 26.044 152.821 25.02 155.077 25.02C157.349 25.02 158.757 26.108 158.757 27.836V33.5H156.357L156.277 32.268C155.781 33.164 154.853 33.708 153.605 33.708ZM154.501 31.9C155.461 31.9 156.261 31.34 156.261 30.492V29.9L154.309 30.156C153.669 30.236 153.365 30.54 153.365 31.036C153.365 31.58 153.765 31.9 154.501 31.9ZM164.033 33.708C161.937 33.708 160.977 32.78 160.977 31.004V27.068H159.473V25.228H160.977V22.588H163.537V25.228H165.617V27.068H163.537V30.828C163.537 31.484 163.857 31.756 164.657 31.756C165.041 31.756 165.361 31.676 165.649 31.596V33.5C165.217 33.628 164.577 33.708 164.033 33.708ZM169.454 21.66V24.236H166.798V21.66H169.454ZM166.846 25.228H169.406V33.5H166.846V25.228ZM174.972 33.708C172.364 33.708 170.636 31.948 170.636 29.436V29.276C170.636 26.78 172.364 25.02 174.972 25.02C177.596 25.02 179.308 26.78 179.308 29.276V29.436C179.308 31.948 177.596 33.708 174.972 33.708ZM174.972 31.756C176.188 31.756 176.716 30.956 176.716 29.436V29.276C176.716 27.772 176.188 26.972 174.972 26.972C173.772 26.972 173.228 27.772 173.228 29.276V29.436C173.228 30.956 173.772 31.756 174.972 31.756ZM183.109 33.5H180.549V25.228H182.997L183.061 26.492C183.461 25.756 184.277 25.02 185.669 25.02C187.765 25.02 188.549 26.348 188.549 28.188V33.5H185.989V28.844C185.989 27.724 185.637 27.068 184.661 27.068C183.733 27.068 183.109 27.74 183.109 28.956V33.5ZM193.554 33.708C191.122 33.708 189.762 32.636 189.634 30.844H192.066C192.162 31.548 192.722 31.948 193.57 31.948C194.338 31.948 194.802 31.644 194.802 31.164C194.802 30.716 194.53 30.444 193.058 30.188C190.85 29.836 189.874 29.132 189.874 27.644C189.874 26.06 191.33 25.02 193.474 25.02C195.698 25.02 197.026 26.028 197.154 27.74H194.77C194.706 27.1 194.194 26.764 193.442 26.764C192.738 26.764 192.322 27.052 192.322 27.5C192.322 27.948 192.658 28.188 194.066 28.396C196.402 28.732 197.314 29.516 197.314 30.924C197.314 32.588 195.874 33.708 193.554 33.708Z" fill="#333333"/>
<path d="M382.885 27.66V27.98C382.885 30.028 382.069 31.724 380.613 32.732L381.925 34.86H379.605L378.805 33.532C378.309 33.644 377.797 33.708 377.237 33.708C373.765 33.708 371.605 31.292 371.605 27.98V27.66C371.605 24.348 373.765 21.932 377.237 21.932C380.725 21.932 382.885 24.348 382.885 27.66ZM376.325 29.436H378.597L379.317 30.604C379.829 29.98 380.101 29.084 380.101 27.98V27.66C380.101 25.516 379.077 24.156 377.237 24.156C375.397 24.156 374.405 25.516 374.405 27.66V27.98C374.405 30.124 375.429 31.484 377.237 31.484C377.349 31.484 377.445 31.484 377.557 31.468L376.325 29.436ZM388.175 33.708C385.567 33.708 383.839 31.948 383.839 29.436V29.276C383.839 26.78 385.567 25.02 388.175 25.02C390.799 25.02 392.511 26.78 392.511 29.276V29.436C392.511 31.948 390.799 33.708 388.175 33.708ZM388.175 31.756C389.391 31.756 389.919 30.956 389.919 29.436V29.276C389.919 27.772 389.391 26.972 388.175 26.972C386.975 26.972 386.431 27.772 386.431 29.276V29.436C386.431 30.956 386.975 31.756 388.175 31.756ZM396.312 33.5H393.752V25.228H396.2L396.248 26.844C396.632 25.884 397.416 25.084 398.664 25.084C398.84 25.084 399.032 25.1 399.176 25.132V27.58C399 27.564 398.744 27.548 398.504 27.548C397.016 27.548 396.312 28.284 396.312 29.644V33.5ZM403.052 33.708C401.068 33.708 400.172 32.46 400.172 30.492V25.228H402.748V29.996C402.748 31.1 403.148 31.66 404.012 31.66C404.908 31.66 405.5 31.02 405.5 29.724V25.228H408.076V33.5H405.612L405.548 32.316C405.1 33.02 404.252 33.708 403.052 33.708ZM416.444 33.5H409.324V31.708L413.148 27.196H409.596V25.228H416.268V26.988L412.46 31.516H416.444V33.5Z" fill="#333333"/>
<path d="M492.75 33.708C489.566 33.708 487.566 31.34 487.566 27.98V27.66C487.566 24.316 489.758 21.932 493.182 21.932C496.046 21.932 497.854 23.628 498.19 25.932H495.47C495.198 24.844 494.43 24.156 493.134 24.156C491.326 24.156 490.366 25.564 490.366 27.66V27.98C490.366 30.092 491.374 31.484 493.246 31.484C495.054 31.484 495.902 30.412 495.982 29.148H492.99V27.132H498.238V33.5H496.286L496.062 32.06C495.502 33.02 494.286 33.708 492.75 33.708ZM502.242 33.5H499.682V25.228H502.13L502.178 26.844C502.562 25.884 503.346 25.084 504.594 25.084C504.77 25.084 504.962 25.1 505.106 25.132V27.58C504.93 27.564 504.674 27.548 504.434 27.548C502.946 27.548 502.242 28.284 502.242 29.644V33.5ZM508.774 21.66V24.236H506.118V21.66H508.774ZM506.166 25.228H508.726V33.5H506.166V25.228ZM512.789 33.5H510.229V25.228H512.677L512.741 26.492C513.141 25.756 513.957 25.02 515.349 25.02C517.445 25.02 518.229 26.348 518.229 28.188V33.5H515.669V28.844C515.669 27.724 515.317 27.068 514.341 27.068C513.413 27.068 512.789 27.74 512.789 28.956V33.5Z" fill="#333333"/>
</g>
<path d="M62.0852 96.75H60.6761C60.5928 96.3447 60.447 95.9886 60.2386 95.6818C60.0341 95.375 59.7841 95.1174 59.4886 94.9091C59.197 94.697 58.8731 94.5379 58.517 94.4318C58.161 94.3258 57.7898 94.2727 57.4034 94.2727C56.6989 94.2727 56.0606 94.4508 55.4886 94.8068C54.9205 95.1629 54.4678 95.6875 54.1307 96.3807C53.7973 97.0739 53.6307 97.9242 53.6307 98.9318C53.6307 99.9394 53.7973 100.79 54.1307 101.483C54.4678 102.176 54.9205 102.701 55.4886 103.057C56.0606 103.413 56.6989 103.591 57.4034 103.591C57.7898 103.591 58.161 103.538 58.517 103.432C58.8731 103.326 59.197 103.169 59.4886 102.96C59.7841 102.748 60.0341 102.489 60.2386 102.182C60.447 101.871 60.5928 101.515 60.6761 101.114H62.0852C61.9792 101.708 61.786 102.241 61.5057 102.71C61.2254 103.18 60.8769 103.58 60.4602 103.909C60.0436 104.235 59.5758 104.483 59.0568 104.653C58.5417 104.824 57.9905 104.909 57.4034 104.909C56.411 104.909 55.5284 104.667 54.7557 104.182C53.983 103.697 53.375 103.008 52.9318 102.114C52.4886 101.22 52.267 100.159 52.267 98.9318C52.267 97.7045 52.4886 96.6439 52.9318 95.75C53.375 94.8561 53.983 94.1667 54.7557 93.6818C55.5284 93.197 56.411 92.9545 57.4034 92.9545C57.9905 92.9545 58.5417 93.0398 59.0568 93.2102C59.5758 93.3807 60.0436 93.6307 60.4602 93.9602C60.8769 94.286 61.2254 94.6837 61.5057 95.1534C61.786 95.6193 61.9792 96.1515 62.0852 96.75ZM66.7486 104.955C66.1955 104.955 65.6937 104.85 65.2429 104.642C64.7921 104.43 64.4342 104.125 64.169 103.727C63.9039 103.326 63.7713 102.841 63.7713 102.273C63.7713 101.773 63.8698 101.367 64.0668 101.057C64.2637 100.742 64.527 100.496 64.8565 100.318C65.1861 100.14 65.5497 100.008 65.9474 99.9205C66.349 99.8295 66.7524 99.7576 67.1577 99.7045C67.688 99.6364 68.1179 99.5852 68.4474 99.5511C68.7808 99.5133 69.0232 99.4508 69.1747 99.3636C69.33 99.2765 69.4077 99.125 69.4077 98.9091V98.8636C69.4077 98.303 69.2543 97.8674 68.9474 97.5568C68.6444 97.2462 68.1842 97.0909 67.5668 97.0909C66.9266 97.0909 66.4247 97.2311 66.0611 97.5114C65.6974 97.7917 65.4418 98.0909 65.294 98.4091L64.0213 97.9545C64.2486 97.4242 64.5516 97.0114 64.9304 96.7159C65.313 96.4167 65.7296 96.2083 66.1804 96.0909C66.6349 95.9697 67.0819 95.9091 67.5213 95.9091C67.8016 95.9091 68.1236 95.9432 68.4872 96.0114C68.8546 96.0758 69.2088 96.2102 69.5497 96.4148C69.8944 96.6193 70.1804 96.928 70.4077 97.3409C70.6349 97.7538 70.7486 98.3068 70.7486 99V104.75H69.4077V103.568H69.3395C69.2486 103.758 69.0971 103.96 68.8849 104.176C68.6728 104.392 68.3906 104.576 68.0384 104.727C67.6861 104.879 67.2562 104.955 66.7486 104.955ZM66.9531 103.75C67.4834 103.75 67.9304 103.646 68.294 103.438C68.6615 103.229 68.938 102.96 69.1236 102.631C69.313 102.301 69.4077 101.955 69.4077 101.591V100.364C69.3509 100.432 69.2259 100.494 69.0327 100.551C68.8433 100.604 68.6236 100.652 68.3736 100.693C68.1274 100.731 67.8868 100.765 67.652 100.795C67.4209 100.822 67.2334 100.845 67.0895 100.864C66.741 100.909 66.4152 100.983 66.1122 101.085C65.813 101.184 65.5705 101.333 65.3849 101.534C65.2031 101.731 65.1122 102 65.1122 102.341C65.1122 102.807 65.2846 103.159 65.6293 103.398C65.9777 103.633 66.419 103.75 66.9531 103.75ZM76.9915 96.0227V97.1591H72.4688V96.0227H76.9915ZM73.7869 93.9318H75.1278V102.25C75.1278 102.629 75.1828 102.913 75.2926 103.102C75.4063 103.288 75.5502 103.413 75.7244 103.477C75.9025 103.538 76.09 103.568 76.2869 103.568C76.4347 103.568 76.5559 103.561 76.6506 103.545C76.7453 103.527 76.821 103.511 76.8778 103.5L77.1506 104.705C77.0597 104.739 76.9328 104.773 76.7699 104.807C76.607 104.845 76.4006 104.864 76.1506 104.864C75.7718 104.864 75.4006 104.782 75.0369 104.619C74.6771 104.456 74.3778 104.208 74.1392 103.875C73.9044 103.542 73.7869 103.121 73.7869 102.614V93.9318ZM82.5739 104.932C81.733 104.932 81.0076 104.746 80.3977 104.375C79.7917 104 79.3239 103.477 78.9943 102.807C78.6686 102.133 78.5057 101.348 78.5057 100.455C78.5057 99.5606 78.6686 98.7727 78.9943 98.0909C79.3239 97.4053 79.7822 96.8712 80.3693 96.4886C80.9602 96.1023 81.6496 95.9091 82.4375 95.9091C82.892 95.9091 83.3409 95.9848 83.7841 96.1364C84.2273 96.2879 84.6307 96.5341 84.9943 96.875C85.358 97.2121 85.6477 97.6591 85.8636 98.2159C86.0795 98.7727 86.1875 99.4583 86.1875 100.273V100.841H79.4602V99.6818H84.8239C84.8239 99.1894 84.7254 98.75 84.5284 98.3636C84.3352 97.9773 84.0587 97.6723 83.6989 97.4489C83.3428 97.2254 82.9223 97.1136 82.4375 97.1136C81.9034 97.1136 81.4413 97.2462 81.0511 97.5114C80.6648 97.7727 80.3674 98.1136 80.1591 98.5341C79.9508 98.9545 79.8466 99.4053 79.8466 99.8864V100.659C79.8466 101.318 79.9602 101.877 80.1875 102.335C80.4186 102.79 80.7386 103.136 81.1477 103.375C81.5568 103.61 82.0322 103.727 82.5739 103.727C82.9261 103.727 83.2443 103.678 83.5284 103.58C83.8163 103.477 84.0644 103.326 84.2727 103.125C84.4811 102.92 84.642 102.667 84.7557 102.364L86.0511 102.727C85.9148 103.167 85.6856 103.553 85.3636 103.886C85.0417 104.216 84.6439 104.473 84.1705 104.659C83.697 104.841 83.1648 104.932 82.5739 104.932ZM91.75 108.205C91.1023 108.205 90.5455 108.121 90.0795 107.955C89.6136 107.792 89.2254 107.576 88.9148 107.307C88.608 107.042 88.3636 106.758 88.1818 106.455L89.25 105.705C89.3712 105.864 89.5246 106.045 89.7102 106.25C89.8958 106.458 90.1496 106.638 90.4716 106.79C90.7973 106.945 91.2235 107.023 91.75 107.023C92.4545 107.023 93.036 106.852 93.4943 106.511C93.9527 106.17 94.1818 105.636 94.1818 104.909V103.136H94.0682C93.9697 103.295 93.8295 103.492 93.6477 103.727C93.4697 103.958 93.2121 104.165 92.875 104.347C92.5417 104.525 92.0909 104.614 91.5227 104.614C90.8182 104.614 90.1856 104.447 89.625 104.114C89.0682 103.78 88.6269 103.295 88.3011 102.659C87.9792 102.023 87.8182 101.25 87.8182 100.341C87.8182 99.447 87.9754 98.6686 88.2898 98.0057C88.6042 97.339 89.0417 96.8239 89.6023 96.4602C90.1629 96.0928 90.8106 95.9091 91.5455 95.9091C92.1136 95.9091 92.5644 96.0038 92.8977 96.1932C93.2348 96.3788 93.4924 96.5909 93.6705 96.8295C93.8523 97.0644 93.9924 97.2576 94.0909 97.4091H94.2273V96.0227H95.5227V105C95.5227 105.75 95.3523 106.36 95.0114 106.83C94.6742 107.303 94.2197 107.65 93.6477 107.869C93.0795 108.093 92.447 108.205 91.75 108.205ZM91.7045 103.409C92.2424 103.409 92.697 103.286 93.0682 103.04C93.4394 102.794 93.7216 102.439 93.9148 101.977C94.108 101.515 94.2045 100.962 94.2045 100.318C94.2045 99.6894 94.1098 99.1345 93.9205 98.6534C93.7311 98.1723 93.4508 97.7955 93.0795 97.5227C92.7083 97.25 92.25 97.1136 91.7045 97.1136C91.1364 97.1136 90.6629 97.2576 90.2841 97.5455C89.9091 97.8333 89.6269 98.2197 89.4375 98.7045C89.2519 99.1894 89.1591 99.7273 89.1591 100.318C89.1591 100.924 89.2538 101.46 89.4432 101.926C89.6364 102.388 89.9205 102.752 90.2955 103.017C90.6742 103.278 91.1439 103.409 91.7045 103.409ZM101.523 104.932C100.735 104.932 100.044 104.744 99.4489 104.369C98.858 103.994 98.3958 103.47 98.0625 102.795C97.733 102.121 97.5682 101.333 97.5682 100.432C97.5682 99.5227 97.733 98.7292 98.0625 98.0511C98.3958 97.3731 98.858 96.8466 99.4489 96.4716C100.044 96.0966 100.735 95.9091 101.523 95.9091C102.311 95.9091 103 96.0966 103.591 96.4716C104.186 96.8466 104.648 97.3731 104.977 98.0511C105.311 98.7292 105.477 99.5227 105.477 100.432C105.477 101.333 105.311 102.121 104.977 102.795C104.648 103.47 104.186 103.994 103.591 104.369C103 104.744 102.311 104.932 101.523 104.932ZM101.523 103.727C102.121 103.727 102.614 103.574 103 103.267C103.386 102.96 103.672 102.557 103.858 102.057C104.044 101.557 104.136 101.015 104.136 100.432C104.136 99.8485 104.044 99.3049 103.858 98.8011C103.672 98.2973 103.386 97.8902 103 97.5795C102.614 97.2689 102.121 97.1136 101.523 97.1136C100.924 97.1136 100.432 97.2689 100.045 97.5795C99.6591 97.8902 99.3731 98.2973 99.1875 98.8011C99.0019 99.3049 98.9091 99.8485 98.9091 100.432C98.9091 101.015 99.0019 101.557 99.1875 102.057C99.3731 102.557 99.6591 102.96 100.045 103.267C100.432 103.574 100.924 103.727 101.523 103.727ZM107.524 104.75V96.0227H108.82V97.3409H108.911C109.07 96.9091 109.357 96.5587 109.774 96.2898C110.191 96.0208 110.661 95.8864 111.183 95.8864C111.282 95.8864 111.405 95.8883 111.553 95.892C111.7 95.8958 111.812 95.9015 111.888 95.9091V97.2727C111.842 97.2614 111.738 97.2443 111.575 97.2216C111.416 97.1951 111.248 97.1818 111.07 97.1818C110.645 97.1818 110.267 97.2708 109.933 97.4489C109.604 97.6231 109.342 97.8655 109.149 98.1761C108.96 98.483 108.865 98.8333 108.865 99.2273V104.75H107.524ZM114.607 108.023C114.379 108.023 114.177 108.004 113.999 107.966C113.821 107.932 113.697 107.898 113.629 107.864L113.97 106.682C114.296 106.765 114.584 106.795 114.834 106.773C115.084 106.75 115.305 106.638 115.499 106.438C115.696 106.241 115.875 105.92 116.038 105.477L116.288 104.795L113.061 96.0227H114.516L116.925 102.977H117.016L119.425 96.0227H120.879L117.175 106.023C117.008 106.473 116.802 106.847 116.555 107.142C116.309 107.441 116.023 107.663 115.697 107.807C115.375 107.951 115.012 108.023 114.607 108.023ZM133.331 97.9773L132.126 98.3182C132.051 98.1174 131.939 97.9223 131.791 97.733C131.647 97.5398 131.45 97.3807 131.2 97.2557C130.95 97.1307 130.63 97.0682 130.24 97.0682C129.706 97.0682 129.261 97.1913 128.905 97.4375C128.553 97.6799 128.376 97.9886 128.376 98.3636C128.376 98.697 128.498 98.9602 128.74 99.1534C128.982 99.3466 129.361 99.5076 129.876 99.6364L131.172 99.9545C131.952 100.144 132.534 100.434 132.916 100.824C133.299 101.21 133.49 101.708 133.49 102.318C133.49 102.818 133.346 103.265 133.058 103.659C132.774 104.053 132.376 104.364 131.865 104.591C131.354 104.818 130.759 104.932 130.081 104.932C129.191 104.932 128.454 104.739 127.871 104.352C127.287 103.966 126.918 103.402 126.763 102.659L128.036 102.341C128.157 102.811 128.386 103.163 128.723 103.398C129.064 103.633 129.509 103.75 130.058 103.75C130.683 103.75 131.179 103.617 131.547 103.352C131.918 103.083 132.104 102.761 132.104 102.386C132.104 102.083 131.998 101.83 131.786 101.625C131.573 101.417 131.248 101.261 130.808 101.159L129.354 100.818C128.554 100.629 127.967 100.335 127.592 99.9375C127.221 99.536 127.036 99.0341 127.036 98.4318C127.036 97.9394 127.174 97.5038 127.45 97.125C127.731 96.7462 128.111 96.4489 128.592 96.233C129.077 96.017 129.626 95.9091 130.24 95.9091C131.104 95.9091 131.782 96.0985 132.274 96.4773C132.77 96.8561 133.123 97.3561 133.331 97.9773ZM139.168 104.932C138.327 104.932 137.601 104.746 136.991 104.375C136.385 104 135.918 103.477 135.588 102.807C135.262 102.133 135.099 101.348 135.099 100.455C135.099 99.5606 135.262 98.7727 135.588 98.0909C135.918 97.4053 136.376 96.8712 136.963 96.4886C137.554 96.1023 138.243 95.9091 139.031 95.9091C139.486 95.9091 139.935 95.9848 140.378 96.1364C140.821 96.2879 141.224 96.5341 141.588 96.875C141.952 97.2121 142.241 97.6591 142.457 98.2159C142.673 98.7727 142.781 99.4583 142.781 100.273V100.841H136.054V99.6818H141.418C141.418 99.1894 141.319 98.75 141.122 98.3636C140.929 97.9773 140.652 97.6723 140.293 97.4489C139.937 97.2254 139.516 97.1136 139.031 97.1136C138.497 97.1136 138.035 97.2462 137.645 97.5114C137.259 97.7727 136.961 98.1136 136.753 98.5341C136.545 98.9545 136.44 99.4053 136.44 99.8864V100.659C136.44 101.318 136.554 101.877 136.781 102.335C137.012 102.79 137.332 103.136 137.741 103.375C138.151 103.61 138.626 103.727 139.168 103.727C139.52 103.727 139.838 103.678 140.122 103.58C140.41 103.477 140.658 103.326 140.866 103.125C141.075 102.92 141.236 102.667 141.349 102.364L142.645 102.727C142.509 103.167 142.279 103.553 141.957 103.886C141.635 104.216 141.238 104.473 140.764 104.659C140.291 104.841 139.759 104.932 139.168 104.932ZM147.389 104.955C146.836 104.955 146.334 104.85 145.884 104.642C145.433 104.43 145.075 104.125 144.81 103.727C144.545 103.326 144.412 102.841 144.412 102.273C144.412 101.773 144.51 101.367 144.707 101.057C144.904 100.742 145.168 100.496 145.497 100.318C145.827 100.14 146.19 100.008 146.588 99.9205C146.99 99.8295 147.393 99.7576 147.798 99.7045C148.329 99.6364 148.759 99.5852 149.088 99.5511C149.421 99.5133 149.664 99.4508 149.815 99.3636C149.971 99.2765 150.048 99.125 150.048 98.9091V98.8636C150.048 98.303 149.895 97.8674 149.588 97.5568C149.285 97.2462 148.825 97.0909 148.207 97.0909C147.567 97.0909 147.065 97.2311 146.702 97.5114C146.338 97.7917 146.082 98.0909 145.935 98.4091L144.662 97.9545C144.889 97.4242 145.192 97.0114 145.571 96.7159C145.954 96.4167 146.37 96.2083 146.821 96.0909C147.276 95.9697 147.723 95.9091 148.162 95.9091C148.442 95.9091 148.764 95.9432 149.128 96.0114C149.495 96.0758 149.849 96.2102 150.19 96.4148C150.535 96.6193 150.821 96.928 151.048 97.3409C151.276 97.7538 151.389 98.3068 151.389 99V104.75H150.048V103.568H149.98C149.889 103.758 149.738 103.96 149.526 104.176C149.313 104.392 149.031 104.576 148.679 104.727C148.327 104.879 147.897 104.955 147.389 104.955ZM147.594 103.75C148.124 103.75 148.571 103.646 148.935 103.438C149.302 103.229 149.579 102.96 149.764 102.631C149.954 102.301 150.048 101.955 150.048 101.591V100.364C149.991 100.432 149.866 100.494 149.673 100.551C149.484 100.604 149.264 100.652 149.014 100.693C148.768 100.731 148.527 100.765 148.293 100.795C148.062 100.822 147.874 100.845 147.73 100.864C147.382 100.909 147.056 100.983 146.753 101.085C146.454 101.184 146.211 101.333 146.026 101.534C145.844 101.731 145.753 102 145.753 102.341C145.753 102.807 145.925 103.159 146.27 103.398C146.618 103.633 147.06 103.75 147.594 103.75ZM153.837 104.75V96.0227H155.132V97.3409H155.223C155.382 96.9091 155.67 96.5587 156.087 96.2898C156.503 96.0208 156.973 95.8864 157.496 95.8864C157.594 95.8864 157.717 95.8883 157.865 95.892C158.013 95.8958 158.125 95.9015 158.2 95.9091V97.2727C158.155 97.2614 158.051 97.2443 157.888 97.2216C157.729 97.1951 157.56 97.1818 157.382 97.1818C156.958 97.1818 156.579 97.2708 156.246 97.4489C155.916 97.6231 155.655 97.8655 155.462 98.1761C155.272 98.483 155.178 98.8333 155.178 99.2273V104.75H153.837ZM163.07 104.932C162.251 104.932 161.547 104.739 160.956 104.352C160.365 103.966 159.911 103.434 159.592 102.756C159.274 102.078 159.115 101.303 159.115 100.432C159.115 99.5455 159.278 98.7633 159.604 98.0852C159.933 97.4034 160.392 96.8712 160.979 96.4886C161.57 96.1023 162.259 95.9091 163.047 95.9091C163.661 95.9091 164.214 96.0227 164.706 96.25C165.198 96.4773 165.602 96.7955 165.916 97.2045C166.231 97.6136 166.426 98.0909 166.501 98.6364H165.161C165.058 98.2386 164.831 97.8864 164.479 97.5795C164.13 97.2689 163.661 97.1136 163.07 97.1136C162.547 97.1136 162.089 97.25 161.695 97.5227C161.304 97.7917 161 98.1723 160.78 98.6648C160.564 99.1534 160.456 99.7273 160.456 100.386C160.456 101.061 160.562 101.648 160.774 102.148C160.99 102.648 161.293 103.036 161.683 103.312C162.077 103.589 162.539 103.727 163.07 103.727C163.418 103.727 163.734 103.667 164.018 103.545C164.303 103.424 164.543 103.25 164.74 103.023C164.937 102.795 165.077 102.523 165.161 102.205H166.501C166.426 102.72 166.238 103.184 165.939 103.597C165.643 104.006 165.251 104.331 164.763 104.574C164.278 104.812 163.714 104.932 163.07 104.932ZM169.803 99.5V104.75H168.462V93.1136H169.803V97.3864H169.916C170.121 96.9356 170.428 96.5777 170.837 96.3125C171.25 96.0436 171.799 95.9091 172.484 95.9091C173.079 95.9091 173.6 96.0284 174.047 96.267C174.494 96.5019 174.84 96.8636 175.087 97.3523C175.337 97.8371 175.462 98.4545 175.462 99.2045V104.75H174.121V99.2955C174.121 98.6023 173.941 98.0663 173.581 97.6875C173.225 97.3049 172.731 97.1136 172.098 97.1136C171.659 97.1136 171.265 97.2064 170.916 97.392C170.571 97.5777 170.299 97.8485 170.098 98.2045C169.901 98.5606 169.803 98.9924 169.803 99.5Z" fill="#666666"/>
<path d="M387 93.25L376 104.25L371 99.25" stroke="#47B935" stroke-width="3" stroke-linecap="round" stroke-linejoin="round"/>
<path d="M503 93.25L492 104.25L487 99.25" stroke="#47B935" stroke-width="3" stroke-linecap="round" stroke-linejoin="round"/>
<path d="M521.375 105.25C525.172 105.25 528.25 102.172 528.25 98.375C528.25 94.578 525.172 91.5 521.375 91.5C517.578 91.5 514.5 94.578 514.5 98.375C514.5 102.172 517.578 105.25 521.375 105.25Z" fill="#C5C5C5"/>
<path d="M521.5 94.5L521.5 99.5" stroke="white" stroke-width="2" stroke-linecap="round" stroke-linejoin="round"/>
<path d="M521.5 102.5H521.506" stroke="white" stroke-width="2" stroke-linecap="round" stroke-linejoin="round"/>
<rect width="580" height="60.5" transform="translate(27 145)" fill="#FFB5A0" fill-opacity="0.1"/>
<path d="M52.6825 181.25V169.614H56.6143C57.5272 169.614 58.2734 169.778 58.853 170.108C59.4363 170.434 59.8681 170.875 60.1484 171.432C60.4287 171.989 60.5689 172.61 60.5689 173.295C60.5689 173.981 60.4287 174.604 60.1484 175.165C59.8719 175.725 59.4439 176.172 58.8643 176.506C58.2848 176.835 57.5424 177 56.6371 177H53.8189V175.75H56.5916C57.2166 175.75 57.7185 175.642 58.0973 175.426C58.4761 175.21 58.7507 174.919 58.9212 174.551C59.0954 174.18 59.1825 173.761 59.1825 173.295C59.1825 172.83 59.0954 172.413 58.9212 172.045C58.7507 171.678 58.4742 171.39 58.0916 171.182C57.709 170.97 57.2015 170.864 56.5689 170.864H54.0916V181.25H52.6825ZM63.9979 169.614V181.25H62.657V169.614H63.9979ZM69.022 181.455C68.469 181.455 67.9671 181.35 67.5163 181.142C67.0656 180.93 66.7076 180.625 66.4425 180.227C66.1773 179.826 66.0447 179.341 66.0447 178.773C66.0447 178.273 66.1432 177.867 66.3402 177.557C66.5372 177.242 66.8004 176.996 67.13 176.818C67.4595 176.64 67.8232 176.508 68.2209 176.42C68.6224 176.33 69.0258 176.258 69.4311 176.205C69.9614 176.136 70.3913 176.085 70.7209 176.051C71.0542 176.013 71.2966 175.951 71.4482 175.864C71.6035 175.777 71.6811 175.625 71.6811 175.409V175.364C71.6811 174.803 71.5277 174.367 71.2209 174.057C70.9179 173.746 70.4576 173.591 69.8402 173.591C69.2 173.591 68.6982 173.731 68.3345 174.011C67.9709 174.292 67.7152 174.591 67.5675 174.909L66.2947 174.455C66.522 173.924 66.825 173.511 67.2038 173.216C67.5864 172.917 68.0031 172.708 68.4538 172.591C68.9084 172.47 69.3554 172.409 69.7947 172.409C70.075 172.409 70.397 172.443 70.7607 172.511C71.1281 172.576 71.4822 172.71 71.8232 172.915C72.1679 173.119 72.4538 173.428 72.6811 173.841C72.9084 174.254 73.022 174.807 73.022 175.5V181.25H71.6811V180.068H71.6129C71.522 180.258 71.3705 180.46 71.1584 180.676C70.9463 180.892 70.6641 181.076 70.3118 181.227C69.9595 181.379 69.5296 181.455 69.022 181.455ZM69.2266 180.25C69.7569 180.25 70.2038 180.146 70.5675 179.938C70.9349 179.729 71.2114 179.46 71.397 179.131C71.5864 178.801 71.6811 178.455 71.6811 178.091V176.864C71.6243 176.932 71.4993 176.994 71.3061 177.051C71.1167 177.104 70.897 177.152 70.647 177.193C70.4008 177.231 70.1603 177.265 69.9254 177.295C69.6944 177.322 69.5069 177.345 69.3629 177.364C69.0144 177.409 68.6887 177.483 68.3857 177.585C68.0864 177.684 67.844 177.833 67.6584 178.034C67.4766 178.231 67.3857 178.5 67.3857 178.841C67.3857 179.307 67.558 179.659 67.9027 179.898C68.2512 180.133 68.6925 180.25 69.2266 180.25ZM79.2649 172.523V173.659H74.7422V172.523H79.2649ZM76.0604 170.432H77.4013V178.75C77.4013 179.129 77.4562 179.413 77.5661 179.602C77.6797 179.788 77.8236 179.913 77.9979 179.977C78.1759 180.038 78.3634 180.068 78.5604 180.068C78.7081 180.068 78.8293 180.061 78.924 180.045C79.0187 180.027 79.0945 180.011 79.1513 180L79.424 181.205C79.3331 181.239 79.2062 181.273 79.0433 181.307C78.8804 181.345 78.674 181.364 78.424 181.364C78.0452 181.364 77.674 181.282 77.3104 181.119C76.9505 180.956 76.6513 180.708 76.4126 180.375C76.1778 180.042 76.0604 179.621 76.0604 179.114V170.432ZM85.1683 172.523V173.659H80.4638V172.523H85.1683ZM81.8729 181.25V171.318C81.8729 170.818 81.9903 170.402 82.2251 170.068C82.46 169.735 82.7649 169.485 83.1399 169.318C83.5149 169.152 83.9107 169.068 84.3274 169.068C84.657 169.068 84.9259 169.095 85.1342 169.148C85.3426 169.201 85.4979 169.25 85.6001 169.295L85.2138 170.455C85.1456 170.432 85.0509 170.403 84.9297 170.369C84.8123 170.335 84.657 170.318 84.4638 170.318C84.0206 170.318 83.7005 170.43 83.5036 170.653C83.3104 170.877 83.2138 171.205 83.2138 171.636V181.25H81.8729ZM90.2337 181.432C89.4458 181.432 88.7545 181.244 88.1598 180.869C87.5689 180.494 87.1068 179.97 86.7734 179.295C86.4439 178.621 86.2791 177.833 86.2791 176.932C86.2791 176.023 86.4439 175.229 86.7734 174.551C87.1068 173.873 87.5689 173.347 88.1598 172.972C88.7545 172.597 89.4458 172.409 90.2337 172.409C91.0215 172.409 91.7109 172.597 92.3018 172.972C92.8965 173.347 93.3587 173.873 93.6882 174.551C94.0215 175.229 94.1882 176.023 94.1882 176.932C94.1882 177.833 94.0215 178.621 93.6882 179.295C93.3587 179.97 92.8965 180.494 92.3018 180.869C91.7109 181.244 91.0215 181.432 90.2337 181.432ZM90.2337 180.227C90.8321 180.227 91.3246 180.074 91.7109 179.767C92.0973 179.46 92.3833 179.057 92.5689 178.557C92.7545 178.057 92.8473 177.515 92.8473 176.932C92.8473 176.348 92.7545 175.805 92.5689 175.301C92.3833 174.797 92.0973 174.39 91.7109 174.08C91.3246 173.769 90.8321 173.614 90.2337 173.614C89.6352 173.614 89.1428 173.769 88.7564 174.08C88.37 174.39 88.084 174.797 87.8984 175.301C87.7128 175.805 87.62 176.348 87.62 176.932C87.62 177.515 87.7128 178.057 87.8984 178.557C88.084 179.057 88.37 179.46 88.7564 179.767C89.1428 180.074 89.6352 180.227 90.2337 180.227ZM96.2351 181.25V172.523H97.5305V173.841H97.6214C97.7805 173.409 98.0684 173.059 98.4851 172.79C98.9018 172.521 99.3714 172.386 99.8942 172.386C99.9927 172.386 100.116 172.388 100.263 172.392C100.411 172.396 100.523 172.402 100.599 172.409V173.773C100.553 173.761 100.449 173.744 100.286 173.722C100.127 173.695 99.9586 173.682 99.7805 173.682C99.3563 173.682 98.9775 173.771 98.6442 173.949C98.3146 174.123 98.0533 174.366 97.8601 174.676C97.6707 174.983 97.576 175.333 97.576 175.727V181.25H96.2351ZM102.188 181.25V172.523H103.484V173.886H103.597C103.779 173.42 104.073 173.059 104.478 172.801C104.883 172.54 105.37 172.409 105.938 172.409C106.514 172.409 106.993 172.54 107.376 172.801C107.762 173.059 108.063 173.42 108.279 173.886H108.37C108.594 173.436 108.929 173.078 109.376 172.812C109.823 172.544 110.359 172.409 110.984 172.409C111.764 172.409 112.402 172.653 112.898 173.142C113.395 173.627 113.643 174.383 113.643 175.409V181.25H112.302V175.409C112.302 174.765 112.126 174.305 111.773 174.028C111.421 173.752 111.006 173.614 110.529 173.614C109.915 173.614 109.44 173.799 109.103 174.17C108.766 174.538 108.597 175.004 108.597 175.568V181.25H107.234V175.273C107.234 174.777 107.073 174.377 106.751 174.074C106.429 173.767 106.014 173.614 105.506 173.614C105.158 173.614 104.832 173.706 104.529 173.892C104.23 174.078 103.987 174.335 103.802 174.665C103.62 174.991 103.529 175.367 103.529 175.795V181.25H102.188ZM126.776 174.477L125.572 174.818C125.496 174.617 125.384 174.422 125.237 174.233C125.093 174.04 124.896 173.881 124.646 173.756C124.396 173.631 124.076 173.568 123.685 173.568C123.151 173.568 122.706 173.691 122.35 173.938C121.998 174.18 121.822 174.489 121.822 174.864C121.822 175.197 121.943 175.46 122.185 175.653C122.428 175.847 122.807 176.008 123.322 176.136L124.617 176.455C125.397 176.644 125.979 176.934 126.362 177.324C126.744 177.71 126.935 178.208 126.935 178.818C126.935 179.318 126.791 179.765 126.504 180.159C126.219 180.553 125.822 180.864 125.31 181.091C124.799 181.318 124.204 181.432 123.526 181.432C122.636 181.432 121.899 181.239 121.316 180.852C120.733 180.466 120.363 179.902 120.208 179.159L121.481 178.841C121.602 179.311 121.831 179.663 122.168 179.898C122.509 180.133 122.954 180.25 123.504 180.25C124.129 180.25 124.625 180.117 124.992 179.852C125.363 179.583 125.549 179.261 125.549 178.886C125.549 178.583 125.443 178.33 125.231 178.125C125.019 177.917 124.693 177.761 124.254 177.659L122.799 177.318C122 177.129 121.413 176.835 121.038 176.438C120.666 176.036 120.481 175.534 120.481 174.932C120.481 174.439 120.619 174.004 120.896 173.625C121.176 173.246 121.557 172.949 122.038 172.733C122.522 172.517 123.072 172.409 123.685 172.409C124.549 172.409 125.227 172.598 125.719 172.977C126.216 173.356 126.568 173.856 126.776 174.477ZM132.613 181.432C131.772 181.432 131.047 181.246 130.437 180.875C129.831 180.5 129.363 179.977 129.033 179.307C128.708 178.633 128.545 177.848 128.545 176.955C128.545 176.061 128.708 175.273 129.033 174.591C129.363 173.905 129.821 173.371 130.408 172.989C130.999 172.602 131.689 172.409 132.477 172.409C132.931 172.409 133.38 172.485 133.823 172.636C134.266 172.788 134.67 173.034 135.033 173.375C135.397 173.712 135.687 174.159 135.903 174.716C136.119 175.273 136.227 175.958 136.227 176.773V177.341H129.499V176.182H134.863C134.863 175.689 134.764 175.25 134.567 174.864C134.374 174.477 134.098 174.172 133.738 173.949C133.382 173.725 132.961 173.614 132.477 173.614C131.942 173.614 131.48 173.746 131.09 174.011C130.704 174.273 130.406 174.614 130.198 175.034C129.99 175.455 129.886 175.905 129.886 176.386V177.159C129.886 177.818 129.999 178.377 130.227 178.835C130.458 179.29 130.778 179.636 131.187 179.875C131.596 180.11 132.071 180.227 132.613 180.227C132.965 180.227 133.283 180.178 133.567 180.08C133.855 179.977 134.103 179.826 134.312 179.625C134.52 179.42 134.681 179.167 134.795 178.864L136.09 179.227C135.954 179.667 135.725 180.053 135.403 180.386C135.081 180.716 134.683 180.973 134.21 181.159C133.736 181.341 133.204 181.432 132.613 181.432ZM140.835 181.455C140.281 181.455 139.78 181.35 139.329 181.142C138.878 180.93 138.52 180.625 138.255 180.227C137.99 179.826 137.857 179.341 137.857 178.773C137.857 178.273 137.956 177.867 138.153 177.557C138.35 177.242 138.613 176.996 138.942 176.818C139.272 176.64 139.636 176.508 140.033 176.42C140.435 176.33 140.838 176.258 141.244 176.205C141.774 176.136 142.204 176.085 142.533 176.051C142.867 176.013 143.109 175.951 143.261 175.864C143.416 175.777 143.494 175.625 143.494 175.409V175.364C143.494 174.803 143.34 174.367 143.033 174.057C142.73 173.746 142.27 173.591 141.653 173.591C141.013 173.591 140.511 173.731 140.147 174.011C139.783 174.292 139.528 174.591 139.38 174.909L138.107 174.455C138.335 173.924 138.638 173.511 139.016 173.216C139.399 172.917 139.816 172.708 140.266 172.591C140.721 172.47 141.168 172.409 141.607 172.409C141.888 172.409 142.21 172.443 142.573 172.511C142.941 172.576 143.295 172.71 143.636 172.915C143.98 173.119 144.266 173.428 144.494 173.841C144.721 174.254 144.835 174.807 144.835 175.5V181.25H143.494V180.068H143.425C143.335 180.258 143.183 180.46 142.971 180.676C142.759 180.892 142.477 181.076 142.124 181.227C141.772 181.379 141.342 181.455 140.835 181.455ZM141.039 180.25C141.569 180.25 142.016 180.146 142.38 179.938C142.747 179.729 143.024 179.46 143.21 179.131C143.399 178.801 143.494 178.455 143.494 178.091V176.864C143.437 176.932 143.312 176.994 143.119 177.051C142.929 177.104 142.71 177.152 142.46 177.193C142.213 177.231 141.973 177.265 141.738 177.295C141.507 177.322 141.319 177.345 141.175 177.364C140.827 177.409 140.501 177.483 140.198 177.585C139.899 177.684 139.656 177.833 139.471 178.034C139.289 178.231 139.198 178.5 139.198 178.841C139.198 179.307 139.371 179.659 139.715 179.898C140.064 180.133 140.505 180.25 141.039 180.25ZM147.282 181.25V172.523H148.577V173.841H148.668C148.827 173.409 149.115 173.059 149.532 172.79C149.949 172.521 150.418 172.386 150.941 172.386C151.04 172.386 151.163 172.388 151.31 172.392C151.458 172.396 151.57 172.402 151.646 172.409V173.773C151.6 173.761 151.496 173.744 151.333 173.722C151.174 173.695 151.005 173.682 150.827 173.682C150.403 173.682 150.024 173.771 149.691 173.949C149.362 174.123 149.1 174.366 148.907 174.676C148.718 174.983 148.623 175.333 148.623 175.727V181.25H147.282ZM156.515 181.432C155.697 181.432 154.992 181.239 154.401 180.852C153.81 180.466 153.356 179.934 153.038 179.256C152.719 178.578 152.56 177.803 152.56 176.932C152.56 176.045 152.723 175.263 153.049 174.585C153.379 173.903 153.837 173.371 154.424 172.989C155.015 172.602 155.704 172.409 156.492 172.409C157.106 172.409 157.659 172.523 158.151 172.75C158.644 172.977 159.047 173.295 159.362 173.705C159.676 174.114 159.871 174.591 159.947 175.136H158.606C158.504 174.739 158.276 174.386 157.924 174.08C157.576 173.769 157.106 173.614 156.515 173.614C155.992 173.614 155.534 173.75 155.14 174.023C154.75 174.292 154.445 174.672 154.225 175.165C154.009 175.653 153.901 176.227 153.901 176.886C153.901 177.561 154.007 178.148 154.219 178.648C154.435 179.148 154.738 179.536 155.129 179.812C155.522 180.089 155.985 180.227 156.515 180.227C156.863 180.227 157.18 180.167 157.464 180.045C157.748 179.924 157.988 179.75 158.185 179.523C158.382 179.295 158.522 179.023 158.606 178.705H159.947C159.871 179.22 159.683 179.684 159.384 180.097C159.089 180.506 158.697 180.831 158.208 181.074C157.723 181.312 157.159 181.432 156.515 181.432ZM163.248 176V181.25H161.907V169.614H163.248V173.886H163.362C163.566 173.436 163.873 173.078 164.282 172.812C164.695 172.544 165.244 172.409 165.93 172.409C166.524 172.409 167.045 172.528 167.492 172.767C167.939 173.002 168.286 173.364 168.532 173.852C168.782 174.337 168.907 174.955 168.907 175.705V181.25H167.566V175.795C167.566 175.102 167.386 174.566 167.026 174.188C166.67 173.805 166.176 173.614 165.543 173.614C165.104 173.614 164.71 173.706 164.362 173.892C164.017 174.078 163.744 174.348 163.543 174.705C163.346 175.061 163.248 175.492 163.248 176ZM175.825 182.798H174.829C173.857 181.478 173.125 179.522 173.125 177.578C173.125 175.67 173.845 173.714 174.829 172.37H175.825C174.853 173.834 174.205 175.79 174.205 177.578C174.205 179.366 174.853 181.334 175.825 182.798ZM177.935 181.25H176.915V172.73H177.935V181.25ZM180.473 181.25H179.513V175.094H180.449L180.473 176.09C180.833 175.43 181.481 174.95 182.465 174.95C183.929 174.95 184.601 175.85 184.601 177.266V181.25H183.653V177.494C183.653 176.39 183.221 175.778 182.213 175.778C181.169 175.778 180.473 176.534 180.473 177.758V181.25ZM188.225 181.394C186.773 181.394 185.789 180.686 185.669 179.366H186.593C186.737 180.242 187.313 180.614 188.249 180.614C189.113 180.614 189.689 180.266 189.689 179.594C189.689 179.006 189.281 178.73 188.045 178.514C186.617 178.25 185.885 177.818 185.885 176.726C185.885 175.658 186.809 174.95 188.141 174.95C189.509 174.95 190.397 175.622 190.529 176.822H189.581C189.473 176.102 188.921 175.73 188.141 175.73C187.349 175.73 186.833 176.09 186.833 176.678C186.833 177.254 187.205 177.518 188.417 177.71C189.845 177.95 190.661 178.418 190.661 179.498C190.661 180.65 189.665 181.394 188.225 181.394ZM194.15 181.394C192.926 181.394 192.278 180.83 192.278 179.702V175.862H191.042V175.094H192.278V173.198H193.238V175.094H195.002V175.862H193.238V179.57C193.238 180.254 193.466 180.578 194.27 180.578C194.51 180.578 194.846 180.518 195.05 180.458V181.274C194.798 181.334 194.414 181.394 194.15 181.394ZM197.859 181.394C196.575 181.394 195.795 180.674 195.795 179.642C195.795 178.754 196.323 178.082 197.307 177.938L199.899 177.554V177.014C199.899 176.126 199.275 175.73 198.483 175.73C197.631 175.73 197.043 176.15 196.971 176.894H196.035C196.143 175.67 197.067 174.95 198.495 174.95C199.995 174.95 200.847 175.802 200.847 177.074V181.25H199.947L199.911 180.29C199.515 181.01 198.723 181.394 197.859 181.394ZM197.955 180.59C198.987 180.59 199.899 179.906 199.899 178.97V178.334L197.619 178.67C197.031 178.754 196.767 179.09 196.767 179.618C196.767 180.206 197.175 180.59 197.955 180.59ZM204.816 183.434C203.256 183.434 202.284 182.726 202.176 181.67H203.208C203.292 182.306 203.844 182.654 204.852 182.654C205.908 182.654 206.688 182.15 206.688 181.01V180.002C206.364 180.626 205.656 181.154 204.612 181.154C203.004 181.154 201.972 179.894 201.972 178.214V177.878C201.972 176.138 203.004 174.95 204.612 174.95C205.692 174.95 206.436 175.55 206.748 176.198L206.772 175.094H207.66V180.95C207.66 182.414 206.64 183.434 204.816 183.434ZM204.78 180.338C206.04 180.338 206.748 179.486 206.748 178.214V177.878C206.748 176.558 206.052 175.766 204.78 175.766C203.616 175.766 202.956 176.57 202.956 177.878V178.214C202.956 179.474 203.628 180.338 204.78 180.338ZM210.063 181.25H209.103V175.094H210.039L210.051 176.282C210.423 175.43 211.107 174.95 211.959 174.95C212.055 174.95 212.163 174.95 212.283 174.974V175.934C212.151 175.922 212.067 175.922 211.935 175.922C210.819 175.922 210.063 176.606 210.063 177.95V181.25ZM214.746 181.394C213.462 181.394 212.682 180.674 212.682 179.642C212.682 178.754 213.21 178.082 214.194 177.938L216.786 177.554V177.014C216.786 176.126 216.162 175.73 215.37 175.73C214.518 175.73 213.93 176.15 213.858 176.894H212.922C213.03 175.67 213.954 174.95 215.382 174.95C216.882 174.95 217.734 175.802 217.734 177.074V181.25H216.834L216.798 180.29C216.402 181.01 215.61 181.394 214.746 181.394ZM214.842 180.59C215.874 180.59 216.786 179.906 216.786 178.97V178.334L214.506 178.67C213.918 178.754 213.654 179.09 213.654 179.618C213.654 180.206 214.062 180.59 214.842 180.59ZM220.082 181.25H219.122V175.094H220.058L220.07 176.066C220.406 175.454 221.042 174.95 222.014 174.95C222.95 174.95 223.574 175.394 223.862 176.174C224.294 175.394 224.99 174.95 225.914 174.95C227.27 174.95 227.954 175.814 227.954 177.242V181.25H226.994V177.446C226.994 176.342 226.574 175.778 225.638 175.778C224.618 175.778 224.018 176.546 224.018 177.77V181.25H223.058V177.446C223.058 176.354 222.662 175.778 221.726 175.778C220.706 175.778 220.082 176.546 220.082 177.794V181.25ZM229.165 183.23V182.63C229.813 182.63 230.137 182.282 230.137 181.598V181.25H229.657V180.014H230.785V181.538C230.785 182.594 230.161 183.23 229.165 183.23ZM238.18 181.25H237.16V173.618H234.544V172.73H240.808V173.618H238.18V181.25ZM243.295 181.25H242.263L240.379 175.094H241.351L242.791 180.074L244.255 175.094H245.203L246.691 180.11L248.143 175.094H249.115L247.195 181.25H246.175L244.723 176.414L243.295 181.25ZM250.997 172.37V174.098H249.989V172.37H250.997ZM250.001 175.094H250.961V181.25H250.001V175.094ZM254.924 181.394C253.7 181.394 253.052 180.83 253.052 179.702V175.862H251.816V175.094H253.052V173.198H254.012V175.094H255.776V175.862H254.012V179.57C254.012 180.254 254.24 180.578 255.044 180.578C255.284 180.578 255.62 180.518 255.824 180.458V181.274C255.572 181.334 255.188 181.394 254.924 181.394ZM259.388 181.394C258.164 181.394 257.516 180.83 257.516 179.702V175.862H256.28V175.094H257.516V173.198H258.476V175.094H260.24V175.862H258.476V179.57C258.476 180.254 258.704 180.578 259.508 180.578C259.748 180.578 260.084 180.518 260.288 180.458V181.274C260.036 181.334 259.652 181.394 259.388 181.394ZM263.904 181.394C262.044 181.394 260.976 180.11 260.976 178.286V178.058C260.976 176.222 262.068 174.95 263.892 174.95C265.848 174.95 266.772 176.294 266.688 178.358H261.96C261.984 179.786 262.704 180.578 263.904 180.578C264.876 180.578 265.476 180.134 265.68 179.342H266.652C266.352 180.638 265.368 181.394 263.904 181.394ZM261.984 177.578H265.68C265.584 176.438 264.984 175.766 263.892 175.766C262.788 175.766 262.116 176.402 261.984 177.578ZM268.762 181.25H267.802V175.094H268.738L268.75 176.282C269.122 175.43 269.806 174.95 270.658 174.95C270.754 174.95 270.862 174.95 270.982 174.974V175.934C270.85 175.922 270.766 175.922 270.634 175.922C269.518 175.922 268.762 176.606 268.762 177.95V181.25ZM270.919 183.23V182.63C271.567 182.63 271.891 182.282 271.891 181.598V181.25H271.411V180.014H272.539V181.538C272.539 182.594 271.915 183.23 270.919 183.23ZM277.882 181.25H276.874V172.73H282.19V173.618H277.882V176.546H281.806V177.434H277.882V181.25ZM284.507 181.394C283.223 181.394 282.443 180.674 282.443 179.642C282.443 178.754 282.971 178.082 283.955 177.938L286.547 177.554V177.014C286.547 176.126 285.923 175.73 285.131 175.73C284.279 175.73 283.691 176.15 283.619 176.894H282.683C282.791 175.67 283.715 174.95 285.143 174.95C286.643 174.95 287.495 175.802 287.495 177.074V181.25H286.595L286.559 180.29C286.163 181.01 285.371 181.394 284.507 181.394ZM284.603 180.59C285.635 180.59 286.547 179.906 286.547 178.97V178.334L284.267 178.67C283.679 178.754 283.415 179.09 283.415 179.618C283.415 180.206 283.823 180.59 284.603 180.59ZM291.476 181.394C289.652 181.394 288.62 180.11 288.62 178.286V178.058C288.62 176.222 289.652 174.95 291.488 174.95C292.976 174.95 293.936 175.826 294.104 177.146H293.144C292.976 176.294 292.436 175.766 291.464 175.766C290.264 175.766 289.604 176.606 289.604 178.058V178.286C289.604 179.738 290.264 180.578 291.476 180.578C292.436 180.578 293.012 180.014 293.18 179.162H294.14C293.912 180.53 292.952 181.394 291.476 181.394ZM297.864 181.394C296.004 181.394 294.936 180.11 294.936 178.286V178.058C294.936 176.222 296.028 174.95 297.852 174.95C299.808 174.95 300.732 176.294 300.648 178.358H295.92C295.944 179.786 296.664 180.578 297.864 180.578C298.836 180.578 299.436 180.134 299.64 179.342H300.612C300.312 180.638 299.328 181.394 297.864 181.394ZM295.944 177.578H299.64C299.544 176.438 298.944 175.766 297.852 175.766C296.748 175.766 296.076 176.402 295.944 177.578ZM304.811 181.394C303.731 181.394 302.999 180.806 302.687 180.17L302.663 181.25H301.763V172.37H302.723V176.09C303.059 175.478 303.767 174.95 304.823 174.95C306.431 174.95 307.463 176.21 307.463 178.058V178.286C307.463 180.134 306.395 181.394 304.811 181.394ZM304.655 180.578C305.807 180.578 306.479 179.702 306.479 178.286V178.058C306.479 176.63 305.807 175.766 304.643 175.766C303.395 175.766 302.687 176.618 302.687 178.058V178.286C302.687 179.714 303.383 180.578 304.655 180.578ZM311.294 181.394C309.506 181.394 308.378 180.17 308.378 178.286V178.058C308.378 176.174 309.506 174.95 311.294 174.95C313.082 174.95 314.222 176.174 314.222 178.058V178.286C314.222 180.17 313.082 181.394 311.294 181.394ZM311.294 180.578C312.554 180.578 313.238 179.726 313.238 178.286V178.058C313.238 176.618 312.554 175.766 311.294 175.766C310.046 175.766 309.362 176.618 309.362 178.058V178.286C309.362 179.726 310.046 180.578 311.294 180.578ZM318.056 181.394C316.268 181.394 315.14 180.17 315.14 178.286V178.058C315.14 176.174 316.268 174.95 318.056 174.95C319.844 174.95 320.984 176.174 320.984 178.058V178.286C320.984 180.17 319.844 181.394 318.056 181.394ZM318.056 180.578C319.316 180.578 320 179.726 320 178.286V178.058C320 176.618 319.316 175.766 318.056 175.766C316.808 175.766 316.124 176.618 316.124 178.058V178.286C316.124 179.726 316.808 180.578 318.056 180.578ZM323.749 178.274L323.125 178.922V181.25H322.165V172.37H323.125V177.83L325.777 175.094H326.977L324.445 177.662L327.049 181.25H325.909L323.749 178.274ZM328.377 182.798H327.369C328.341 181.334 328.989 179.366 328.989 177.578C328.989 175.79 328.341 173.834 327.369 172.37H328.377C329.349 173.714 330.069 175.67 330.069 177.578C330.069 179.522 329.337 181.478 328.377 182.798Z" fill="#666666"/>
<path d="M387 169.75L376 180.75L371 175.75" stroke="#47B935" stroke-width="3" stroke-linecap="round" stroke-linejoin="round"/>
<path d="M503 169.75L492 180.75L487 175.75" stroke="#47B935" stroke-width="3" stroke-linecap="round" stroke-linejoin="round"/>
<path d="M53.277 257.75H51.7997L56.0724 246.114H57.527L61.7997 257.75H60.3224L56.8452 247.955H56.7543L53.277 257.75ZM53.8224 253.205H59.777V254.455H53.8224V253.205ZM66.7259 257.932C65.9986 257.932 65.3565 257.748 64.7997 257.381C64.2429 257.009 63.8073 256.487 63.4929 255.812C63.1785 255.134 63.0213 254.333 63.0213 253.409C63.0213 252.492 63.1785 251.697 63.4929 251.023C63.8073 250.348 64.2448 249.828 64.8054 249.46C65.366 249.093 66.0137 248.909 66.7486 248.909C67.3168 248.909 67.7656 249.004 68.0952 249.193C68.4285 249.379 68.6823 249.591 68.8565 249.83C69.0346 250.064 69.1728 250.258 69.2713 250.409H69.3849V246.114H70.7259V257.75H69.4304V256.409H69.2713C69.1728 256.568 69.0327 256.769 68.8509 257.011C68.669 257.25 68.4096 257.464 68.0724 257.653C67.7353 257.839 67.2865 257.932 66.7259 257.932ZM66.9077 256.727C67.4455 256.727 67.9001 256.587 68.2713 256.307C68.6425 256.023 68.9247 255.631 69.1179 255.131C69.3111 254.627 69.4077 254.045 69.4077 253.386C69.4077 252.735 69.313 252.165 69.1236 251.676C68.9342 251.184 68.6539 250.801 68.2827 250.528C67.9115 250.252 67.4531 250.114 66.9077 250.114C66.3395 250.114 65.866 250.259 65.4872 250.551C65.1122 250.839 64.83 251.231 64.6406 251.727C64.455 252.22 64.3622 252.773 64.3622 253.386C64.3622 254.008 64.4569 254.572 64.6463 255.08C64.8395 255.583 65.1236 255.985 65.4986 256.284C65.8774 256.58 66.3471 256.727 66.9077 256.727ZM80.5043 249.023L77.277 257.75H75.9134L72.6861 249.023H74.1406L76.5497 255.977H76.6406L79.0497 249.023H80.5043ZM84.5767 257.955C84.0237 257.955 83.5218 257.85 83.071 257.642C82.6203 257.43 82.2623 257.125 81.9972 256.727C81.732 256.326 81.5994 255.841 81.5994 255.273C81.5994 254.773 81.6979 254.367 81.8949 254.057C82.0919 253.742 82.3551 253.496 82.6847 253.318C83.0142 253.14 83.3778 253.008 83.7756 252.92C84.1771 252.83 84.5805 252.758 84.9858 252.705C85.5161 252.636 85.946 252.585 86.2756 252.551C86.6089 252.513 86.8513 252.451 87.0028 252.364C87.1581 252.277 87.2358 252.125 87.2358 251.909V251.864C87.2358 251.303 87.0824 250.867 86.7756 250.557C86.4725 250.246 86.0123 250.091 85.3949 250.091C84.7547 250.091 84.2528 250.231 83.8892 250.511C83.5256 250.792 83.2699 251.091 83.1222 251.409L81.8494 250.955C82.0767 250.424 82.3797 250.011 82.7585 249.716C83.1411 249.417 83.5578 249.208 84.0085 249.091C84.4631 248.97 84.91 248.909 85.3494 248.909C85.6297 248.909 85.9517 248.943 86.3153 249.011C86.6828 249.076 87.0369 249.21 87.3778 249.415C87.7225 249.619 88.0085 249.928 88.2358 250.341C88.4631 250.754 88.5767 251.307 88.5767 252V257.75H87.2358V256.568H87.1676C87.0767 256.758 86.9252 256.96 86.7131 257.176C86.5009 257.392 86.2188 257.576 85.8665 257.727C85.5142 257.879 85.0843 257.955 84.5767 257.955ZM84.7812 256.75C85.3116 256.75 85.7585 256.646 86.1222 256.438C86.4896 256.229 86.7661 255.96 86.9517 255.631C87.1411 255.301 87.2358 254.955 87.2358 254.591V253.364C87.179 253.432 87.054 253.494 86.8608 253.551C86.6714 253.604 86.4517 253.652 86.2017 253.693C85.9555 253.731 85.715 253.765 85.4801 253.795C85.2491 253.822 85.0616 253.845 84.9176 253.864C84.5691 253.909 84.2434 253.983 83.9403 254.085C83.6411 254.184 83.3987 254.333 83.2131 254.534C83.0313 254.731 82.9403 255 82.9403 255.341C82.9403 255.807 83.1127 256.159 83.4574 256.398C83.8059 256.633 84.2472 256.75 84.7812 256.75ZM92.3651 252.5V257.75H91.0241V249.023H92.3196V250.386H92.4332C92.6378 249.943 92.9484 249.587 93.3651 249.318C93.7817 249.045 94.3196 248.909 94.9787 248.909C95.5696 248.909 96.0866 249.03 96.5298 249.273C96.973 249.511 97.3177 249.875 97.5639 250.364C97.8101 250.848 97.9332 251.462 97.9332 252.205V257.75H96.5923V252.295C96.5923 251.61 96.4143 251.076 96.0582 250.693C95.7022 250.307 95.2135 250.114 94.5923 250.114C94.1643 250.114 93.7817 250.206 93.4446 250.392C93.1113 250.578 92.848 250.848 92.6548 251.205C92.4616 251.561 92.3651 251.992 92.3651 252.5ZM103.929 257.932C103.111 257.932 102.406 257.739 101.815 257.352C101.224 256.966 100.77 256.434 100.452 255.756C100.134 255.078 99.9744 254.303 99.9744 253.432C99.9744 252.545 100.137 251.763 100.463 251.085C100.793 250.403 101.251 249.871 101.838 249.489C102.429 249.102 103.118 248.909 103.906 248.909C104.52 248.909 105.073 249.023 105.565 249.25C106.058 249.477 106.461 249.795 106.776 250.205C107.09 250.614 107.285 251.091 107.361 251.636H106.02C105.918 251.239 105.69 250.886 105.338 250.58C104.99 250.269 104.52 250.114 103.929 250.114C103.406 250.114 102.948 250.25 102.554 250.523C102.164 250.792 101.859 251.172 101.639 251.665C101.423 252.153 101.315 252.727 101.315 253.386C101.315 254.061 101.421 254.648 101.634 255.148C101.849 255.648 102.152 256.036 102.543 256.312C102.937 256.589 103.399 256.727 103.929 256.727C104.277 256.727 104.594 256.667 104.878 256.545C105.162 256.424 105.402 256.25 105.599 256.023C105.796 255.795 105.937 255.523 106.02 255.205H107.361C107.285 255.72 107.098 256.184 106.798 256.597C106.503 257.006 106.111 257.331 105.622 257.574C105.137 257.812 104.573 257.932 103.929 257.932ZM112.98 257.932C112.139 257.932 111.414 257.746 110.804 257.375C110.198 257 109.73 256.477 109.401 255.807C109.075 255.133 108.912 254.348 108.912 253.455C108.912 252.561 109.075 251.773 109.401 251.091C109.73 250.405 110.188 249.871 110.776 249.489C111.366 249.102 112.056 248.909 112.844 248.909C113.298 248.909 113.747 248.985 114.19 249.136C114.634 249.288 115.037 249.534 115.401 249.875C115.764 250.212 116.054 250.659 116.27 251.216C116.486 251.773 116.594 252.458 116.594 253.273V253.841H109.866V252.682H115.23C115.23 252.189 115.132 251.75 114.935 251.364C114.741 250.977 114.465 250.672 114.105 250.449C113.749 250.225 113.329 250.114 112.844 250.114C112.31 250.114 111.848 250.246 111.457 250.511C111.071 250.773 110.774 251.114 110.565 251.534C110.357 251.955 110.253 252.405 110.253 252.886V253.659C110.253 254.318 110.366 254.877 110.594 255.335C110.825 255.79 111.145 256.136 111.554 256.375C111.963 256.61 112.438 256.727 112.98 256.727C113.332 256.727 113.651 256.678 113.935 256.58C114.223 256.477 114.471 256.326 114.679 256.125C114.887 255.92 115.048 255.667 115.162 255.364L116.457 255.727C116.321 256.167 116.092 256.553 115.77 256.886C115.448 257.216 115.05 257.473 114.577 257.659C114.103 257.841 113.571 257.932 112.98 257.932ZM127.02 249.023V250.159H122.315V249.023H127.02ZM123.724 257.75V247.818C123.724 247.318 123.842 246.902 124.077 246.568C124.312 246.235 124.616 245.985 124.991 245.818C125.366 245.652 125.762 245.568 126.179 245.568C126.509 245.568 126.777 245.595 126.986 245.648C127.194 245.701 127.349 245.75 127.452 245.795L127.065 246.955C126.997 246.932 126.902 246.903 126.781 246.869C126.664 246.835 126.509 246.818 126.315 246.818C125.872 246.818 125.552 246.93 125.355 247.153C125.162 247.377 125.065 247.705 125.065 248.136V257.75H123.724ZM128.899 257.75V249.023H130.24V257.75H128.899ZM129.581 247.568C129.32 247.568 129.094 247.479 128.905 247.301C128.719 247.123 128.626 246.909 128.626 246.659C128.626 246.409 128.719 246.195 128.905 246.017C129.094 245.839 129.32 245.75 129.581 245.75C129.842 245.75 130.066 245.839 130.251 246.017C130.441 246.195 130.536 246.409 130.536 246.659C130.536 246.909 130.441 247.123 130.251 247.301C130.066 247.479 129.842 247.568 129.581 247.568ZM134.037 246.114V257.75H132.696V246.114H134.037ZM140.288 249.023V250.159H135.766V249.023H140.288ZM137.084 246.932H138.425V255.25C138.425 255.629 138.48 255.913 138.589 256.102C138.703 256.288 138.847 256.413 139.021 256.477C139.199 256.538 139.387 256.568 139.584 256.568C139.732 256.568 139.853 256.561 139.947 256.545C140.042 256.527 140.118 256.511 140.175 256.5L140.447 257.705C140.357 257.739 140.23 257.773 140.067 257.807C139.904 257.845 139.697 257.864 139.447 257.864C139.069 257.864 138.697 257.782 138.334 257.619C137.974 257.456 137.675 257.208 137.436 256.875C137.201 256.542 137.084 256.121 137.084 255.614V246.932ZM145.871 257.932C145.03 257.932 144.304 257.746 143.695 257.375C143.089 257 142.621 256.477 142.291 255.807C141.965 255.133 141.803 254.348 141.803 253.455C141.803 252.561 141.965 251.773 142.291 251.091C142.621 250.405 143.079 249.871 143.666 249.489C144.257 249.102 144.946 248.909 145.734 248.909C146.189 248.909 146.638 248.985 147.081 249.136C147.524 249.288 147.928 249.534 148.291 249.875C148.655 250.212 148.945 250.659 149.161 251.216C149.376 251.773 149.484 252.458 149.484 253.273V253.841H142.757V252.682H148.121C148.121 252.189 148.022 251.75 147.825 251.364C147.632 250.977 147.356 250.672 146.996 250.449C146.64 250.225 146.219 250.114 145.734 250.114C145.2 250.114 144.738 250.246 144.348 250.511C143.962 250.773 143.664 251.114 143.456 251.534C143.248 251.955 143.143 252.405 143.143 252.886V253.659C143.143 254.318 143.257 254.877 143.484 255.335C143.715 255.79 144.036 256.136 144.445 256.375C144.854 256.61 145.329 256.727 145.871 256.727C146.223 256.727 146.541 256.678 146.825 256.58C147.113 256.477 147.361 256.326 147.57 256.125C147.778 255.92 147.939 255.667 148.053 255.364L149.348 255.727C149.212 256.167 148.982 256.553 148.661 256.886C148.339 257.216 147.941 257.473 147.467 257.659C146.994 257.841 146.462 257.932 145.871 257.932ZM151.524 257.75V249.023H152.82V250.341H152.911C153.07 249.909 153.357 249.559 153.774 249.29C154.191 249.021 154.661 248.886 155.183 248.886C155.282 248.886 155.405 248.888 155.553 248.892C155.7 248.896 155.812 248.902 155.888 248.909V250.273C155.842 250.261 155.738 250.244 155.575 250.222C155.416 250.195 155.248 250.182 155.07 250.182C154.645 250.182 154.267 250.271 153.933 250.449C153.604 250.623 153.342 250.866 153.149 251.176C152.96 251.483 152.865 251.833 152.865 252.227V257.75H151.524ZM163.659 250.977L162.455 251.318C162.379 251.117 162.267 250.922 162.119 250.733C161.975 250.54 161.778 250.381 161.528 250.256C161.278 250.131 160.958 250.068 160.568 250.068C160.034 250.068 159.589 250.191 159.233 250.438C158.881 250.68 158.705 250.989 158.705 251.364C158.705 251.697 158.826 251.96 159.068 252.153C159.311 252.347 159.689 252.508 160.205 252.636L161.5 252.955C162.28 253.144 162.862 253.434 163.244 253.824C163.627 254.21 163.818 254.708 163.818 255.318C163.818 255.818 163.674 256.265 163.386 256.659C163.102 257.053 162.705 257.364 162.193 257.591C161.682 257.818 161.087 257.932 160.409 257.932C159.519 257.932 158.782 257.739 158.199 257.352C157.616 256.966 157.246 256.402 157.091 255.659L158.364 255.341C158.485 255.811 158.714 256.163 159.051 256.398C159.392 256.633 159.837 256.75 160.386 256.75C161.011 256.75 161.508 256.617 161.875 256.352C162.246 256.083 162.432 255.761 162.432 255.386C162.432 255.083 162.326 254.83 162.114 254.625C161.902 254.417 161.576 254.261 161.136 254.159L159.682 253.818C158.883 253.629 158.295 253.335 157.92 252.938C157.549 252.536 157.364 252.034 157.364 251.432C157.364 250.939 157.502 250.504 157.778 250.125C158.059 249.746 158.439 249.449 158.92 249.233C159.405 249.017 159.955 248.909 160.568 248.909C161.432 248.909 162.11 249.098 162.602 249.477C163.098 249.856 163.451 250.356 163.659 250.977Z" fill="#666666"/>
<path d="M387 246.25L376 257.25L371 252.25" stroke="#47B935" stroke-width="3" stroke-linecap="round" stroke-linejoin="round"/>
<path d="M503 246.25L492 257.25L487 252.25" stroke="#47B935" stroke-width="3" stroke-linecap="round" stroke-linejoin="round"/>
<rect width="580" height="60.5" transform="translate(27 298)" fill="#FFB5A0" fill-opacity="0.1"/>
<path d="M61.9212 326.25H60.5121C60.4287 325.845 60.2829 325.489 60.0746 325.182C59.87 324.875 59.62 324.617 59.3246 324.409C59.0329 324.197 58.709 324.038 58.353 323.932C57.9969 323.826 57.6257 323.773 57.2393 323.773C56.5348 323.773 55.8965 323.951 55.3246 324.307C54.7564 324.663 54.3037 325.188 53.9666 325.881C53.6333 326.574 53.4666 327.424 53.4666 328.432C53.4666 329.439 53.6333 330.29 53.9666 330.983C54.3037 331.676 54.7564 332.201 55.3246 332.557C55.8965 332.913 56.5348 333.091 57.2393 333.091C57.6257 333.091 57.9969 333.038 58.353 332.932C58.709 332.826 59.0329 332.669 59.3246 332.46C59.62 332.248 59.87 331.989 60.0746 331.682C60.2829 331.371 60.4287 331.015 60.5121 330.614H61.9212C61.8151 331.208 61.6219 331.741 61.3416 332.21C61.0613 332.68 60.7128 333.08 60.2962 333.409C59.8795 333.735 59.4117 333.983 58.8928 334.153C58.3776 334.324 57.8265 334.409 57.2393 334.409C56.2469 334.409 55.3643 334.167 54.5916 333.682C53.8189 333.197 53.2109 332.508 52.7678 331.614C52.3246 330.72 52.103 329.659 52.103 328.432C52.103 327.205 52.3246 326.144 52.7678 325.25C53.2109 324.356 53.8189 323.667 54.5916 323.182C55.3643 322.697 56.2469 322.455 57.2393 322.455C57.8265 322.455 58.3776 322.54 58.8928 322.71C59.4117 322.881 59.8795 323.131 60.2962 323.46C60.7128 323.786 61.0613 324.184 61.3416 324.653C61.6219 325.119 61.8151 325.652 61.9212 326.25ZM69.5163 330.682V325.523H70.8572V334.25H69.5163V332.773H69.4254C69.2209 333.216 68.9027 333.593 68.4709 333.903C68.0391 334.21 67.4936 334.364 66.8345 334.364C66.2891 334.364 65.8042 334.244 65.38 334.006C64.9557 333.763 64.6224 333.4 64.38 332.915C64.1375 332.426 64.0163 331.811 64.0163 331.068V325.523H65.3572V330.977C65.3572 331.614 65.5353 332.121 65.8913 332.5C66.2512 332.879 66.7095 333.068 67.2663 333.068C67.5997 333.068 67.9387 332.983 68.2834 332.812C68.6319 332.642 68.9235 332.381 69.1584 332.028C69.397 331.676 69.5163 331.227 69.5163 330.682ZM73.3132 334.25V325.523H74.6087V326.841H74.6996C74.8587 326.409 75.1465 326.059 75.5632 325.79C75.9799 325.521 76.4496 325.386 76.9723 325.386C77.0708 325.386 77.1939 325.388 77.3416 325.392C77.4893 325.396 77.6011 325.402 77.6768 325.409V326.773C77.6314 326.761 77.5272 326.744 77.3643 326.722C77.2053 326.695 77.0367 326.682 76.8587 326.682C76.4344 326.682 76.0556 326.771 75.7223 326.949C75.3928 327.123 75.1314 327.366 74.9382 327.676C74.7488 327.983 74.6541 328.333 74.6541 328.727V334.25H73.3132ZM81.8345 334.455C81.2815 334.455 80.7796 334.35 80.3288 334.142C79.8781 333.93 79.5201 333.625 79.255 333.227C78.9898 332.826 78.8572 332.341 78.8572 331.773C78.8572 331.273 78.9557 330.867 79.1527 330.557C79.3497 330.242 79.6129 329.996 79.9425 329.818C80.272 329.64 80.6357 329.508 81.0334 329.42C81.4349 329.33 81.8383 329.258 82.2436 329.205C82.7739 329.136 83.2038 329.085 83.5334 329.051C83.8667 329.013 84.1091 328.951 84.2607 328.864C84.416 328.777 84.4936 328.625 84.4936 328.409V328.364C84.4936 327.803 84.3402 327.367 84.0334 327.057C83.7304 326.746 83.2701 326.591 82.6527 326.591C82.0125 326.591 81.5107 326.731 81.147 327.011C80.7834 327.292 80.5277 327.591 80.38 327.909L79.1072 327.455C79.3345 326.924 79.6375 326.511 80.0163 326.216C80.3989 325.917 80.8156 325.708 81.2663 325.591C81.7209 325.47 82.1679 325.409 82.6072 325.409C82.8875 325.409 83.2095 325.443 83.5732 325.511C83.9406 325.576 84.2947 325.71 84.6357 325.915C84.9804 326.119 85.2663 326.428 85.4936 326.841C85.7209 327.254 85.8345 327.807 85.8345 328.5V334.25H84.4936V333.068H84.4254C84.3345 333.258 84.183 333.46 83.9709 333.676C83.7588 333.892 83.4766 334.076 83.1243 334.227C82.772 334.379 82.3421 334.455 81.8345 334.455ZM82.0391 333.25C82.5694 333.25 83.0163 333.146 83.38 332.938C83.7474 332.729 84.0239 332.46 84.2095 332.131C84.3989 331.801 84.4936 331.455 84.4936 331.091V329.864C84.4368 329.932 84.3118 329.994 84.1186 330.051C83.9292 330.104 83.7095 330.152 83.4595 330.193C83.2133 330.231 82.9728 330.265 82.7379 330.295C82.5069 330.322 82.3194 330.345 82.1754 330.364C81.8269 330.409 81.5012 330.483 81.1982 330.585C80.8989 330.684 80.6565 330.833 80.4709 331.034C80.2891 331.231 80.1982 331.5 80.1982 331.841C80.1982 332.307 80.3705 332.659 80.7152 332.898C81.0637 333.133 81.505 333.25 82.0391 333.25ZM92.0774 325.523V326.659H87.5547V325.523H92.0774ZM88.8729 323.432H90.2138V331.75C90.2138 332.129 90.2687 332.413 90.3786 332.602C90.4922 332.788 90.6361 332.913 90.8104 332.977C90.9884 333.038 91.1759 333.068 91.3729 333.068C91.5206 333.068 91.6418 333.061 91.7365 333.045C91.8312 333.027 91.907 333.011 91.9638 333L92.2365 334.205C92.1456 334.239 92.0187 334.273 91.8558 334.307C91.6929 334.345 91.4865 334.364 91.2365 334.364C90.8577 334.364 90.4865 334.282 90.1229 334.119C89.763 333.956 89.4638 333.708 89.2251 333.375C88.9903 333.042 88.8729 332.621 88.8729 332.114V323.432ZM97.6598 334.432C96.8189 334.432 96.0935 334.246 95.4837 333.875C94.8776 333.5 94.4098 332.977 94.0803 332.307C93.7545 331.633 93.5916 330.848 93.5916 329.955C93.5916 329.061 93.7545 328.273 94.0803 327.591C94.4098 326.905 94.8681 326.371 95.4553 325.989C96.0462 325.602 96.7356 325.409 97.5234 325.409C97.978 325.409 98.4268 325.485 98.87 325.636C99.3132 325.788 99.7166 326.034 100.08 326.375C100.444 326.712 100.734 327.159 100.95 327.716C101.165 328.273 101.273 328.958 101.273 329.773V330.341H94.5462V329.182H99.9098C99.9098 328.689 99.8113 328.25 99.6143 327.864C99.4212 327.477 99.1446 327.172 98.7848 326.949C98.4287 326.725 98.0083 326.614 97.5234 326.614C96.9893 326.614 96.5272 326.746 96.1371 327.011C95.7507 327.273 95.4534 327.614 95.245 328.034C95.0367 328.455 94.9325 328.905 94.9325 329.386V330.159C94.9325 330.818 95.0462 331.377 95.2734 331.835C95.5045 332.29 95.8246 332.636 96.2337 332.875C96.6428 333.11 97.1181 333.227 97.6598 333.227C98.0121 333.227 98.3303 333.178 98.6143 333.08C98.9022 332.977 99.1503 332.826 99.3587 332.625C99.567 332.42 99.728 332.167 99.8416 331.864L101.137 332.227C101.001 332.667 100.772 333.053 100.45 333.386C100.128 333.716 99.7299 333.973 99.2564 334.159C98.7829 334.341 98.2507 334.432 97.6598 334.432ZM106.609 334.432C105.881 334.432 105.239 334.248 104.683 333.881C104.126 333.509 103.69 332.987 103.376 332.312C103.061 331.634 102.904 330.833 102.904 329.909C102.904 328.992 103.061 328.197 103.376 327.523C103.69 326.848 104.128 326.328 104.688 325.96C105.249 325.593 105.897 325.409 106.631 325.409C107.2 325.409 107.648 325.504 107.978 325.693C108.311 325.879 108.565 326.091 108.739 326.33C108.917 326.564 109.056 326.758 109.154 326.909H109.268V322.614H110.609V334.25H109.313V332.909H109.154C109.056 333.068 108.915 333.269 108.734 333.511C108.552 333.75 108.292 333.964 107.955 334.153C107.618 334.339 107.169 334.432 106.609 334.432ZM106.79 333.227C107.328 333.227 107.783 333.087 108.154 332.807C108.525 332.523 108.808 332.131 109.001 331.631C109.194 331.127 109.29 330.545 109.29 329.886C109.29 329.235 109.196 328.665 109.006 328.176C108.817 327.684 108.537 327.301 108.165 327.028C107.794 326.752 107.336 326.614 106.79 326.614C106.222 326.614 105.749 326.759 105.37 327.051C104.995 327.339 104.713 327.731 104.523 328.227C104.338 328.72 104.245 329.273 104.245 329.886C104.245 330.508 104.34 331.072 104.529 331.58C104.722 332.083 105.006 332.485 105.381 332.784C105.76 333.08 106.23 333.227 106.79 333.227ZM119.092 322.614V334.25H117.751V322.614H119.092ZM121.548 334.25V325.523H122.888V334.25H121.548ZM122.229 324.068C121.968 324.068 121.743 323.979 121.553 323.801C121.368 323.623 121.275 323.409 121.275 323.159C121.275 322.909 121.368 322.695 121.553 322.517C121.743 322.339 121.968 322.25 122.229 322.25C122.491 322.25 122.714 322.339 122.9 322.517C123.089 322.695 123.184 322.909 123.184 323.159C123.184 323.409 123.089 323.623 122.9 323.801C122.714 323.979 122.491 324.068 122.229 324.068ZM131.526 327.477L130.322 327.818C130.246 327.617 130.134 327.422 129.987 327.233C129.843 327.04 129.646 326.881 129.396 326.756C129.146 326.631 128.826 326.568 128.435 326.568C127.901 326.568 127.456 326.691 127.1 326.938C126.748 327.18 126.572 327.489 126.572 327.864C126.572 328.197 126.693 328.46 126.935 328.653C127.178 328.847 127.557 329.008 128.072 329.136L129.367 329.455C130.147 329.644 130.729 329.934 131.112 330.324C131.494 330.71 131.685 331.208 131.685 331.818C131.685 332.318 131.541 332.765 131.254 333.159C130.969 333.553 130.572 333.864 130.06 334.091C129.549 334.318 128.954 334.432 128.276 334.432C127.386 334.432 126.649 334.239 126.066 333.852C125.483 333.466 125.113 332.902 124.958 332.159L126.231 331.841C126.352 332.311 126.581 332.663 126.918 332.898C127.259 333.133 127.704 333.25 128.254 333.25C128.879 333.25 129.375 333.117 129.742 332.852C130.113 332.583 130.299 332.261 130.299 331.886C130.299 331.583 130.193 331.33 129.981 331.125C129.769 330.917 129.443 330.761 129.004 330.659L127.549 330.318C126.75 330.129 126.163 329.835 125.788 329.438C125.416 329.036 125.231 328.534 125.231 327.932C125.231 327.439 125.369 327.004 125.646 326.625C125.926 326.246 126.307 325.949 126.788 325.733C127.272 325.517 127.822 325.409 128.435 325.409C129.299 325.409 129.977 325.598 130.469 325.977C130.966 326.356 131.318 326.856 131.526 327.477ZM137.499 325.523V326.659H132.977V325.523H137.499ZM134.295 323.432H135.636V331.75C135.636 332.129 135.691 332.413 135.8 332.602C135.914 332.788 136.058 332.913 136.232 332.977C136.41 333.038 136.598 333.068 136.795 333.068C136.942 333.068 137.064 333.061 137.158 333.045C137.253 333.027 137.329 333.011 137.386 333L137.658 334.205C137.567 334.239 137.441 334.273 137.278 334.307C137.115 334.345 136.908 334.364 136.658 334.364C136.28 334.364 135.908 334.282 135.545 334.119C135.185 333.956 134.886 333.708 134.647 333.375C134.412 333.042 134.295 332.621 134.295 332.114V323.432ZM147.562 334.432C146.774 334.432 146.083 334.244 145.488 333.869C144.897 333.494 144.435 332.97 144.102 332.295C143.772 331.621 143.607 330.833 143.607 329.932C143.607 329.023 143.772 328.229 144.102 327.551C144.435 326.873 144.897 326.347 145.488 325.972C146.083 325.597 146.774 325.409 147.562 325.409C148.35 325.409 149.039 325.597 149.63 325.972C150.225 326.347 150.687 326.873 151.016 327.551C151.35 328.229 151.516 329.023 151.516 329.932C151.516 330.833 151.35 331.621 151.016 332.295C150.687 332.97 150.225 333.494 149.63 333.869C149.039 334.244 148.35 334.432 147.562 334.432ZM147.562 333.227C148.16 333.227 148.653 333.074 149.039 332.767C149.425 332.46 149.711 332.057 149.897 331.557C150.083 331.057 150.175 330.515 150.175 329.932C150.175 329.348 150.083 328.805 149.897 328.301C149.711 327.797 149.425 327.39 149.039 327.08C148.653 326.769 148.16 326.614 147.562 326.614C146.963 326.614 146.471 326.769 146.085 327.08C145.698 327.39 145.412 327.797 145.227 328.301C145.041 328.805 144.948 329.348 144.948 329.932C144.948 330.515 145.041 331.057 145.227 331.557C145.412 332.057 145.698 332.46 146.085 332.767C146.471 333.074 146.963 333.227 147.562 333.227ZM157.45 325.523V326.659H152.745V325.523H157.45ZM154.154 334.25V324.318C154.154 323.818 154.272 323.402 154.506 323.068C154.741 322.735 155.046 322.485 155.421 322.318C155.796 322.152 156.192 322.068 156.609 322.068C156.938 322.068 157.207 322.095 157.415 322.148C157.624 322.201 157.779 322.25 157.881 322.295L157.495 323.455C157.427 323.432 157.332 323.403 157.211 323.369C157.094 323.335 156.938 323.318 156.745 323.318C156.302 323.318 155.982 323.43 155.785 323.653C155.592 323.877 155.495 324.205 155.495 324.636V334.25H154.154ZM163.829 334.25V325.523H165.17V334.25H163.829ZM164.511 324.068C164.249 324.068 164.024 323.979 163.835 323.801C163.649 323.623 163.556 323.409 163.556 323.159C163.556 322.909 163.649 322.695 163.835 322.517C164.024 322.339 164.249 322.25 164.511 322.25C164.772 322.25 164.996 322.339 165.181 322.517C165.371 322.695 165.465 322.909 165.465 323.159C165.465 323.409 165.371 323.623 165.181 323.801C164.996 323.979 164.772 324.068 164.511 324.068ZM168.967 329V334.25H167.626V325.523H168.921V326.886H169.035C169.239 326.443 169.55 326.087 169.967 325.818C170.383 325.545 170.921 325.409 171.58 325.409C172.171 325.409 172.688 325.53 173.131 325.773C173.575 326.011 173.919 326.375 174.165 326.864C174.412 327.348 174.535 327.962 174.535 328.705V334.25H173.194V328.795C173.194 328.11 173.016 327.576 172.66 327.193C172.304 326.807 171.815 326.614 171.194 326.614C170.766 326.614 170.383 326.706 170.046 326.892C169.713 327.078 169.45 327.348 169.256 327.705C169.063 328.061 168.967 328.492 168.967 329ZM180.871 325.523V326.659H176.167V325.523H180.871ZM177.576 334.25V324.318C177.576 323.818 177.693 323.402 177.928 323.068C178.163 322.735 178.468 322.485 178.843 322.318C179.218 322.152 179.614 322.068 180.031 322.068C180.36 322.068 180.629 322.095 180.837 322.148C181.046 322.201 181.201 322.25 181.303 322.295L180.917 323.455C180.849 323.432 180.754 323.403 180.633 323.369C180.515 323.335 180.36 323.318 180.167 323.318C179.724 323.318 179.404 323.43 179.207 323.653C179.013 323.877 178.917 324.205 178.917 324.636V334.25H177.576ZM184.092 322.614V334.25H182.751V322.614H184.092ZM192.048 330.682V325.523H193.388V334.25H192.048V332.773H191.957C191.752 333.216 191.434 333.593 191.002 333.903C190.57 334.21 190.025 334.364 189.366 334.364C188.82 334.364 188.335 334.244 187.911 334.006C187.487 333.763 187.154 333.4 186.911 332.915C186.669 332.426 186.548 331.811 186.548 331.068V325.523H187.888V330.977C187.888 331.614 188.067 332.121 188.423 332.5C188.782 332.879 189.241 333.068 189.798 333.068C190.131 333.068 190.47 332.983 190.815 332.812C191.163 332.642 191.455 332.381 191.69 332.028C191.928 331.676 192.048 331.227 192.048 330.682ZM199.504 334.432C198.663 334.432 197.937 334.246 197.327 333.875C196.721 333.5 196.254 332.977 195.924 332.307C195.598 331.633 195.435 330.848 195.435 329.955C195.435 329.061 195.598 328.273 195.924 327.591C196.254 326.905 196.712 326.371 197.299 325.989C197.89 325.602 198.579 325.409 199.367 325.409C199.822 325.409 200.271 325.485 200.714 325.636C201.157 325.788 201.56 326.034 201.924 326.375C202.288 326.712 202.577 327.159 202.793 327.716C203.009 328.273 203.117 328.958 203.117 329.773V330.341H196.39V329.182H201.754C201.754 328.689 201.655 328.25 201.458 327.864C201.265 327.477 200.988 327.172 200.629 326.949C200.272 326.725 199.852 326.614 199.367 326.614C198.833 326.614 198.371 326.746 197.981 327.011C197.594 327.273 197.297 327.614 197.089 328.034C196.88 328.455 196.776 328.905 196.776 329.386V330.159C196.776 330.818 196.89 331.377 197.117 331.835C197.348 332.29 197.668 332.636 198.077 332.875C198.487 333.11 198.962 333.227 199.504 333.227C199.856 333.227 200.174 333.178 200.458 333.08C200.746 332.977 200.994 332.826 201.202 332.625C201.411 332.42 201.572 332.167 201.685 331.864L202.981 332.227C202.844 332.667 202.615 333.053 202.293 333.386C201.971 333.716 201.574 333.973 201.1 334.159C200.627 334.341 200.094 334.432 199.504 334.432ZM206.498 329V334.25H205.157V325.523H206.452V326.886H206.566C206.771 326.443 207.081 326.087 207.498 325.818C207.915 325.545 208.452 325.409 209.112 325.409C209.702 325.409 210.219 325.53 210.663 325.773C211.106 326.011 211.451 326.375 211.697 326.864C211.943 327.348 212.066 327.962 212.066 328.705V334.25H210.725V328.795C210.725 328.11 210.547 327.576 210.191 327.193C209.835 326.807 209.346 326.614 208.725 326.614C208.297 326.614 207.915 326.706 207.577 326.892C207.244 327.078 206.981 327.348 206.788 327.705C206.594 328.061 206.498 328.492 206.498 329ZM218.062 334.432C217.244 334.432 216.539 334.239 215.948 333.852C215.357 333.466 214.903 332.934 214.585 332.256C214.266 331.578 214.107 330.803 214.107 329.932C214.107 329.045 214.27 328.263 214.596 327.585C214.925 326.903 215.384 326.371 215.971 325.989C216.562 325.602 217.251 325.409 218.039 325.409C218.653 325.409 219.206 325.523 219.698 325.75C220.191 325.977 220.594 326.295 220.908 326.705C221.223 327.114 221.418 327.591 221.494 328.136H220.153C220.05 327.739 219.823 327.386 219.471 327.08C219.122 326.769 218.653 326.614 218.062 326.614C217.539 326.614 217.081 326.75 216.687 327.023C216.297 327.292 215.992 327.672 215.772 328.165C215.556 328.653 215.448 329.227 215.448 329.886C215.448 330.561 215.554 331.148 215.766 331.648C215.982 332.148 216.285 332.536 216.675 332.812C217.069 333.089 217.531 333.227 218.062 333.227C218.41 333.227 218.727 333.167 219.011 333.045C219.295 332.924 219.535 332.75 219.732 332.523C219.929 332.295 220.069 332.023 220.153 331.705H221.494C221.418 332.22 221.23 332.684 220.931 333.097C220.636 333.506 220.244 333.831 219.755 334.074C219.27 334.312 218.706 334.432 218.062 334.432ZM227.113 334.432C226.272 334.432 225.547 334.246 224.937 333.875C224.331 333.5 223.863 332.977 223.533 332.307C223.208 331.633 223.045 330.848 223.045 329.955C223.045 329.061 223.208 328.273 223.533 327.591C223.863 326.905 224.321 326.371 224.908 325.989C225.499 325.602 226.189 325.409 226.977 325.409C227.431 325.409 227.88 325.485 228.323 325.636C228.766 325.788 229.17 326.034 229.533 326.375C229.897 326.712 230.187 327.159 230.403 327.716C230.619 328.273 230.727 328.958 230.727 329.773V330.341H223.999V329.182H229.363C229.363 328.689 229.264 328.25 229.067 327.864C228.874 327.477 228.598 327.172 228.238 326.949C227.882 326.725 227.461 326.614 226.977 326.614C226.442 326.614 225.98 326.746 225.59 327.011C225.204 327.273 224.906 327.614 224.698 328.034C224.49 328.455 224.386 328.905 224.386 329.386V330.159C224.386 330.818 224.499 331.377 224.727 331.835C224.958 332.29 225.278 332.636 225.687 332.875C226.096 333.11 226.571 333.227 227.113 333.227C227.465 333.227 227.783 333.178 228.067 333.08C228.355 332.977 228.603 332.826 228.812 332.625C229.02 332.42 229.181 332.167 229.295 331.864L230.59 332.227C230.454 332.667 230.225 333.053 229.903 333.386C229.581 333.716 229.183 333.973 228.71 334.159C228.236 334.341 227.704 334.432 227.113 334.432ZM232.766 334.25V325.523H234.062V326.841H234.153C234.312 326.409 234.6 326.059 235.016 325.79C235.433 325.521 235.903 325.386 236.425 325.386C236.524 325.386 236.647 325.388 236.795 325.392C236.942 325.396 237.054 325.402 237.13 325.409V326.773C237.085 326.761 236.98 326.744 236.817 326.722C236.658 326.695 236.49 326.682 236.312 326.682C235.888 326.682 235.509 326.771 235.175 326.949C234.846 327.123 234.585 327.366 234.391 327.676C234.202 327.983 234.107 328.333 234.107 328.727V334.25H232.766ZM244.901 327.477L243.697 327.818C243.621 327.617 243.509 327.422 243.362 327.233C243.218 327.04 243.021 326.881 242.771 326.756C242.521 326.631 242.201 326.568 241.81 326.568C241.276 326.568 240.831 326.691 240.475 326.938C240.123 327.18 239.947 327.489 239.947 327.864C239.947 328.197 240.068 328.46 240.31 328.653C240.553 328.847 240.932 329.008 241.447 329.136L242.742 329.455C243.522 329.644 244.104 329.934 244.487 330.324C244.869 330.71 245.06 331.208 245.06 331.818C245.06 332.318 244.916 332.765 244.629 333.159C244.344 333.553 243.947 333.864 243.435 334.091C242.924 334.318 242.329 334.432 241.651 334.432C240.761 334.432 240.024 334.239 239.441 333.852C238.858 333.466 238.488 332.902 238.333 332.159L239.606 331.841C239.727 332.311 239.956 332.663 240.293 332.898C240.634 333.133 241.079 333.25 241.629 333.25C242.254 333.25 242.75 333.117 243.117 332.852C243.488 332.583 243.674 332.261 243.674 331.886C243.674 331.583 243.568 331.33 243.356 331.125C243.144 330.917 242.818 330.761 242.379 330.659L240.924 330.318C240.125 330.129 239.538 329.835 239.163 329.438C238.791 329.036 238.606 328.534 238.606 327.932C238.606 327.439 238.744 327.004 239.021 326.625C239.301 326.246 239.682 325.949 240.163 325.733C240.647 325.517 241.197 325.409 241.81 325.409C242.674 325.409 243.352 325.598 243.844 325.977C244.341 326.356 244.693 326.856 244.901 327.477Z" fill="#666666"/>
<path d="M387 322.75L376 333.75L371 328.75" stroke="#47B935" stroke-width="3" stroke-linecap="round" stroke-linejoin="round"/>
<path d="M503 322.75L492 333.75L487 328.75" stroke="#47B935" stroke-width="3" stroke-linecap="round" stroke-linejoin="round"/>
<path d="M521.375 334.75C525.172 334.75 528.25 331.672 528.25 327.875C528.25 324.078 525.172 321 521.375 321C517.578 321 514.5 324.078 514.5 327.875C514.5 331.672 517.578 334.75 521.375 334.75Z" fill="#C5C5C5"/>
<path d="M521.5 324L521.5 329" stroke="white" stroke-width="2" stroke-linecap="round" stroke-linejoin="round"/>
<path d="M521.5 332H521.506" stroke="white" stroke-width="2" stroke-linecap="round" stroke-linejoin="round"/>
<path d="M60.1548 399.114H61.5639V406.818C61.5639 407.614 61.3764 408.324 61.0014 408.949C60.6302 409.57 60.1056 410.061 59.4276 410.42C58.7495 410.777 57.9541 410.955 57.0412 410.955C56.1283 410.955 55.3329 410.777 54.6548 410.42C53.9768 410.061 53.4503 409.57 53.0753 408.949C52.7041 408.324 52.5185 407.614 52.5185 406.818V399.114H53.9276V406.705C53.9276 407.273 54.0526 407.778 54.3026 408.222C54.5526 408.661 54.9086 409.008 55.3707 409.261C55.8366 409.511 56.3935 409.636 57.0412 409.636C57.6889 409.636 58.2457 409.511 58.7116 409.261C59.1776 409.008 59.5336 408.661 59.7798 408.222C60.0298 407.778 60.1548 407.273 60.1548 406.705V399.114ZM65.5369 405.5V410.75H64.196V402.023H65.4915V403.386H65.6051C65.8097 402.943 66.1203 402.587 66.5369 402.318C66.9536 402.045 67.4915 401.909 68.1506 401.909C68.7415 401.909 69.2585 402.03 69.7017 402.273C70.1449 402.511 70.4896 402.875 70.7358 403.364C70.982 403.848 71.1051 404.462 71.1051 405.205V410.75H69.7642V405.295C69.7642 404.61 69.5862 404.076 69.2301 403.693C68.8741 403.307 68.3854 403.114 67.7642 403.114C67.3362 403.114 66.9536 403.206 66.6165 403.392C66.2831 403.578 66.0199 403.848 65.8267 404.205C65.6335 404.561 65.5369 404.992 65.5369 405.5ZM73.5554 410.75V402.023H74.8963V410.75H73.5554ZM74.2372 400.568C73.9759 400.568 73.7505 400.479 73.5611 400.301C73.3755 400.123 73.2827 399.909 73.2827 399.659C73.2827 399.409 73.3755 399.195 73.5611 399.017C73.7505 398.839 73.9759 398.75 74.2372 398.75C74.4986 398.75 74.7221 398.839 74.9077 399.017C75.0971 399.195 75.1918 399.409 75.1918 399.659C75.1918 399.909 75.0971 400.123 74.9077 400.301C74.7221 400.479 74.4986 400.568 74.2372 400.568ZM84.4886 402.023L81.2614 410.75H79.8977L76.6705 402.023H78.125L80.5341 408.977H80.625L83.0341 402.023H84.4886ZM89.6051 410.932C88.7642 410.932 88.0388 410.746 87.429 410.375C86.8229 410 86.3551 409.477 86.0256 408.807C85.6998 408.133 85.5369 407.348 85.5369 406.455C85.5369 405.561 85.6998 404.773 86.0256 404.091C86.3551 403.405 86.8134 402.871 87.4006 402.489C87.9915 402.102 88.6809 401.909 89.4688 401.909C89.9233 401.909 90.3722 401.985 90.8153 402.136C91.2585 402.288 91.6619 402.534 92.0256 402.875C92.3892 403.212 92.679 403.659 92.8949 404.216C93.1108 404.773 93.2188 405.458 93.2188 406.273V406.841H86.4915V405.682H91.8551C91.8551 405.189 91.7566 404.75 91.5597 404.364C91.3665 403.977 91.09 403.672 90.7301 403.449C90.3741 403.225 89.9536 403.114 89.4688 403.114C88.9347 403.114 88.4725 403.246 88.0824 403.511C87.696 403.773 87.3987 404.114 87.1903 404.534C86.982 404.955 86.8778 405.405 86.8778 405.886V406.659C86.8778 407.318 86.9915 407.877 87.2188 408.335C87.4498 408.79 87.7699 409.136 88.179 409.375C88.5881 409.61 89.0634 409.727 89.6051 409.727C89.9574 409.727 90.2756 409.678 90.5597 409.58C90.8475 409.477 91.0956 409.326 91.304 409.125C91.5123 408.92 91.6733 408.667 91.7869 408.364L93.0824 408.727C92.946 409.167 92.7169 409.553 92.3949 409.886C92.0729 410.216 91.6752 410.473 91.2017 410.659C90.7282 410.841 90.196 410.932 89.6051 410.932ZM95.2585 410.75V402.023H96.554V403.341H96.6449C96.804 402.909 97.0919 402.559 97.5085 402.29C97.9252 402.021 98.3949 401.886 98.9176 401.886C99.0161 401.886 99.1392 401.888 99.2869 401.892C99.4347 401.896 99.5464 401.902 99.6222 401.909V403.273C99.5767 403.261 99.4725 403.244 99.3097 403.222C99.1506 403.195 98.982 403.182 98.804 403.182C98.3797 403.182 98.0009 403.271 97.6676 403.449C97.3381 403.623 97.0767 403.866 96.8835 404.176C96.6941 404.483 96.5994 404.833 96.5994 405.227V410.75H95.2585ZM107.393 403.977L106.189 404.318C106.113 404.117 106.001 403.922 105.854 403.733C105.71 403.54 105.513 403.381 105.263 403.256C105.013 403.131 104.693 403.068 104.303 403.068C103.768 403.068 103.323 403.191 102.967 403.438C102.615 403.68 102.439 403.989 102.439 404.364C102.439 404.697 102.56 404.96 102.803 405.153C103.045 405.347 103.424 405.508 103.939 405.636L105.234 405.955C106.015 406.144 106.596 406.434 106.979 406.824C107.361 407.21 107.553 407.708 107.553 408.318C107.553 408.818 107.409 409.265 107.121 409.659C106.837 410.053 106.439 410.364 105.928 410.591C105.416 410.818 104.821 410.932 104.143 410.932C103.253 410.932 102.517 410.739 101.933 410.352C101.35 409.966 100.981 409.402 100.825 408.659L102.098 408.341C102.219 408.811 102.448 409.163 102.786 409.398C103.126 409.633 103.571 409.75 104.121 409.75C104.746 409.75 105.242 409.617 105.609 409.352C105.981 409.083 106.166 408.761 106.166 408.386C106.166 408.083 106.06 407.83 105.848 407.625C105.636 407.417 105.31 407.261 104.871 407.159L103.416 406.818C102.617 406.629 102.03 406.335 101.655 405.938C101.284 405.536 101.098 405.034 101.098 404.432C101.098 403.939 101.236 403.504 101.513 403.125C101.793 402.746 102.174 402.449 102.655 402.233C103.14 402.017 103.689 401.909 104.303 401.909C105.166 401.909 105.844 402.098 106.337 402.477C106.833 402.856 107.185 403.356 107.393 403.977ZM112.139 410.955C111.586 410.955 111.084 410.85 110.634 410.642C110.183 410.43 109.825 410.125 109.56 409.727C109.295 409.326 109.162 408.841 109.162 408.273C109.162 407.773 109.26 407.367 109.457 407.057C109.654 406.742 109.918 406.496 110.247 406.318C110.577 406.14 110.94 406.008 111.338 405.92C111.74 405.83 112.143 405.758 112.548 405.705C113.079 405.636 113.509 405.585 113.838 405.551C114.171 405.513 114.414 405.451 114.565 405.364C114.721 405.277 114.798 405.125 114.798 404.909V404.864C114.798 404.303 114.645 403.867 114.338 403.557C114.035 403.246 113.575 403.091 112.957 403.091C112.317 403.091 111.815 403.231 111.452 403.511C111.088 403.792 110.832 404.091 110.685 404.409L109.412 403.955C109.639 403.424 109.942 403.011 110.321 402.716C110.704 402.417 111.12 402.208 111.571 402.091C112.026 401.97 112.473 401.909 112.912 401.909C113.192 401.909 113.514 401.943 113.878 402.011C114.245 402.076 114.599 402.21 114.94 402.415C115.285 402.619 115.571 402.928 115.798 403.341C116.026 403.754 116.139 404.307 116.139 405V410.75H114.798V409.568H114.73C114.639 409.758 114.488 409.96 114.276 410.176C114.063 410.392 113.781 410.576 113.429 410.727C113.077 410.879 112.647 410.955 112.139 410.955ZM112.344 409.75C112.874 409.75 113.321 409.646 113.685 409.438C114.052 409.229 114.329 408.96 114.514 408.631C114.704 408.301 114.798 407.955 114.798 407.591V406.364C114.741 406.432 114.616 406.494 114.423 406.551C114.234 406.604 114.014 406.652 113.764 406.693C113.518 406.731 113.277 406.765 113.043 406.795C112.812 406.822 112.624 406.845 112.48 406.864C112.132 406.909 111.806 406.983 111.503 407.085C111.204 407.184 110.961 407.333 110.776 407.534C110.594 407.731 110.503 408 110.503 408.341C110.503 408.807 110.675 409.159 111.02 409.398C111.368 409.633 111.81 409.75 112.344 409.75ZM119.928 399.114V410.75H118.587V399.114H119.928ZM126.884 410.75V402.023H128.224V410.75H126.884ZM127.565 400.568C127.304 400.568 127.079 400.479 126.889 400.301C126.704 400.123 126.611 399.909 126.611 399.659C126.611 399.409 126.704 399.195 126.889 399.017C127.079 398.839 127.304 398.75 127.565 398.75C127.827 398.75 128.05 398.839 128.236 399.017C128.425 399.195 128.52 399.409 128.52 399.659C128.52 399.909 128.425 400.123 128.236 400.301C128.05 400.479 127.827 400.568 127.565 400.568ZM132.021 405.5V410.75H130.68V402.023H131.976V403.386H132.089C132.294 402.943 132.605 402.587 133.021 402.318C133.438 402.045 133.976 401.909 134.635 401.909C135.226 401.909 135.743 402.03 136.186 402.273C136.629 402.511 136.974 402.875 137.22 403.364C137.466 403.848 137.589 404.462 137.589 405.205V410.75H136.249V405.295C136.249 404.61 136.071 404.076 135.714 403.693C135.358 403.307 134.87 403.114 134.249 403.114C133.821 403.114 133.438 403.206 133.101 403.392C132.768 403.578 132.504 403.848 132.311 404.205C132.118 404.561 132.021 404.992 132.021 405.5ZM143.926 402.023V403.159H139.222V402.023H143.926ZM140.631 410.75V400.818C140.631 400.318 140.748 399.902 140.983 399.568C141.218 399.235 141.523 398.985 141.898 398.818C142.273 398.652 142.669 398.568 143.085 398.568C143.415 398.568 143.684 398.595 143.892 398.648C144.1 398.701 144.256 398.75 144.358 398.795L143.972 399.955C143.903 399.932 143.809 399.903 143.688 399.869C143.57 399.835 143.415 399.818 143.222 399.818C142.778 399.818 142.458 399.93 142.261 400.153C142.068 400.377 141.972 400.705 141.972 401.136V410.75H140.631ZM147.146 399.114V410.75H145.805V399.114H147.146ZM155.102 407.182V402.023H156.443V410.75H155.102V409.273H155.011C154.807 409.716 154.489 410.093 154.057 410.403C153.625 410.71 153.08 410.864 152.42 410.864C151.875 410.864 151.39 410.744 150.966 410.506C150.542 410.263 150.208 409.9 149.966 409.415C149.723 408.926 149.602 408.311 149.602 407.568V402.023H150.943V407.477C150.943 408.114 151.121 408.621 151.477 409C151.837 409.379 152.295 409.568 152.852 409.568C153.186 409.568 153.525 409.483 153.869 409.312C154.218 409.142 154.509 408.881 154.744 408.528C154.983 408.176 155.102 407.727 155.102 407.182ZM162.558 410.932C161.717 410.932 160.992 410.746 160.382 410.375C159.776 410 159.308 409.477 158.979 408.807C158.653 408.133 158.49 407.348 158.49 406.455C158.49 405.561 158.653 404.773 158.979 404.091C159.308 403.405 159.767 402.871 160.354 402.489C160.945 402.102 161.634 401.909 162.422 401.909C162.876 401.909 163.325 401.985 163.768 402.136C164.212 402.288 164.615 402.534 164.979 402.875C165.342 403.212 165.632 403.659 165.848 404.216C166.064 404.773 166.172 405.458 166.172 406.273V406.841H159.445V405.682H164.808C164.808 405.189 164.71 404.75 164.513 404.364C164.32 403.977 164.043 403.672 163.683 403.449C163.327 403.225 162.907 403.114 162.422 403.114C161.888 403.114 161.426 403.246 161.036 403.511C160.649 403.773 160.352 404.114 160.143 404.534C159.935 404.955 159.831 405.405 159.831 405.886V406.659C159.831 407.318 159.945 407.877 160.172 408.335C160.403 408.79 160.723 409.136 161.132 409.375C161.541 409.61 162.017 409.727 162.558 409.727C162.911 409.727 163.229 409.678 163.513 409.58C163.801 409.477 164.049 409.326 164.257 409.125C164.465 408.92 164.626 408.667 164.74 408.364L166.036 408.727C165.899 409.167 165.67 409.553 165.348 409.886C165.026 410.216 164.628 410.473 164.155 410.659C163.681 410.841 163.149 410.932 162.558 410.932ZM169.553 405.5V410.75H168.212V402.023H169.507V403.386H169.621C169.825 402.943 170.136 402.587 170.553 402.318C170.969 402.045 171.507 401.909 172.166 401.909C172.757 401.909 173.274 402.03 173.717 402.273C174.161 402.511 174.505 402.875 174.751 403.364C174.998 403.848 175.121 404.462 175.121 405.205V410.75H173.78V405.295C173.78 404.61 173.602 404.076 173.246 403.693C172.89 403.307 172.401 403.114 171.78 403.114C171.352 403.114 170.969 403.206 170.632 403.392C170.299 403.578 170.036 403.848 169.842 404.205C169.649 404.561 169.553 404.992 169.553 405.5ZM181.116 410.932C180.298 410.932 179.594 410.739 179.003 410.352C178.412 409.966 177.957 409.434 177.639 408.756C177.321 408.078 177.162 407.303 177.162 406.432C177.162 405.545 177.325 404.763 177.651 404.085C177.98 403.403 178.438 402.871 179.026 402.489C179.616 402.102 180.306 401.909 181.094 401.909C181.707 401.909 182.26 402.023 182.753 402.25C183.245 402.477 183.649 402.795 183.963 403.205C184.277 403.614 184.473 404.091 184.548 404.636H183.207C183.105 404.239 182.878 403.886 182.526 403.58C182.177 403.269 181.707 403.114 181.116 403.114C180.594 403.114 180.135 403.25 179.741 403.523C179.351 403.792 179.046 404.172 178.827 404.665C178.611 405.153 178.503 405.727 178.503 406.386C178.503 407.061 178.609 407.648 178.821 408.148C179.037 408.648 179.34 409.036 179.73 409.312C180.124 409.589 180.586 409.727 181.116 409.727C181.465 409.727 181.781 409.667 182.065 409.545C182.349 409.424 182.59 409.25 182.787 409.023C182.984 408.795 183.124 408.523 183.207 408.205H184.548C184.473 408.72 184.285 409.184 183.986 409.597C183.69 410.006 183.298 410.331 182.81 410.574C182.325 410.812 181.76 410.932 181.116 410.932ZM190.168 410.932C189.327 410.932 188.601 410.746 187.991 410.375C187.385 410 186.918 409.477 186.588 408.807C186.262 408.133 186.099 407.348 186.099 406.455C186.099 405.561 186.262 404.773 186.588 404.091C186.918 403.405 187.376 402.871 187.963 402.489C188.554 402.102 189.243 401.909 190.031 401.909C190.486 401.909 190.935 401.985 191.378 402.136C191.821 402.288 192.224 402.534 192.588 402.875C192.952 403.212 193.241 403.659 193.457 404.216C193.673 404.773 193.781 405.458 193.781 406.273V406.841H187.054V405.682H192.418C192.418 405.189 192.319 404.75 192.122 404.364C191.929 403.977 191.652 403.672 191.293 403.449C190.937 403.225 190.516 403.114 190.031 403.114C189.497 403.114 189.035 403.246 188.645 403.511C188.259 403.773 187.961 404.114 187.753 404.534C187.545 404.955 187.44 405.405 187.44 405.886V406.659C187.44 407.318 187.554 407.877 187.781 408.335C188.012 408.79 188.332 409.136 188.741 409.375C189.151 409.61 189.626 409.727 190.168 409.727C190.52 409.727 190.838 409.678 191.122 409.58C191.41 409.477 191.658 409.326 191.866 409.125C192.075 408.92 192.236 408.667 192.349 408.364L193.645 408.727C193.509 409.167 193.279 409.553 192.957 409.886C192.635 410.216 192.238 410.473 191.764 410.659C191.291 410.841 190.759 410.932 190.168 410.932ZM195.821 410.75V402.023H197.116V403.341H197.207C197.366 402.909 197.654 402.559 198.071 402.29C198.488 402.021 198.957 401.886 199.48 401.886C199.579 401.886 199.702 401.888 199.849 401.892C199.997 401.896 200.109 401.902 200.185 401.909V403.273C200.139 403.261 200.035 403.244 199.872 403.222C199.713 403.195 199.545 403.182 199.366 403.182C198.942 403.182 198.563 403.271 198.23 403.449C197.901 403.623 197.639 403.866 197.446 404.176C197.257 404.483 197.162 404.833 197.162 405.227V410.75H195.821ZM212.456 403.977L211.251 404.318C211.176 404.117 211.064 403.922 210.916 403.733C210.772 403.54 210.575 403.381 210.325 403.256C210.075 403.131 209.755 403.068 209.365 403.068C208.831 403.068 208.386 403.191 208.03 403.438C207.678 403.68 207.501 403.989 207.501 404.364C207.501 404.697 207.623 404.96 207.865 405.153C208.107 405.347 208.486 405.508 209.001 405.636L210.297 405.955C211.077 406.144 211.659 406.434 212.041 406.824C212.424 407.21 212.615 407.708 212.615 408.318C212.615 408.818 212.471 409.265 212.183 409.659C211.899 410.053 211.501 410.364 210.99 410.591C210.479 410.818 209.884 410.932 209.206 410.932C208.316 410.932 207.579 410.739 206.996 410.352C206.412 409.966 206.043 409.402 205.888 408.659L207.161 408.341C207.282 408.811 207.511 409.163 207.848 409.398C208.189 409.633 208.634 409.75 209.183 409.75C209.808 409.75 210.304 409.617 210.672 409.352C211.043 409.083 211.229 408.761 211.229 408.386C211.229 408.083 211.123 407.83 210.911 407.625C210.698 407.417 210.373 407.261 209.933 407.159L208.479 406.818C207.679 406.629 207.092 406.335 206.717 405.938C206.346 405.536 206.161 405.034 206.161 404.432C206.161 403.939 206.299 403.504 206.575 403.125C206.856 402.746 207.236 402.449 207.717 402.233C208.202 402.017 208.751 401.909 209.365 401.909C210.229 401.909 210.907 402.098 211.399 402.477C211.895 402.856 212.248 403.356 212.456 403.977ZM218.179 410.932C217.361 410.932 216.656 410.739 216.065 410.352C215.474 409.966 215.02 409.434 214.702 408.756C214.384 408.078 214.224 407.303 214.224 406.432C214.224 405.545 214.387 404.763 214.713 404.085C215.043 403.403 215.501 402.871 216.088 402.489C216.679 402.102 217.368 401.909 218.156 401.909C218.77 401.909 219.323 402.023 219.815 402.25C220.308 402.477 220.711 402.795 221.026 403.205C221.34 403.614 221.535 404.091 221.611 404.636H220.27C220.168 404.239 219.94 403.886 219.588 403.58C219.24 403.269 218.77 403.114 218.179 403.114C217.656 403.114 217.198 403.25 216.804 403.523C216.414 403.792 216.109 404.172 215.889 404.665C215.673 405.153 215.565 405.727 215.565 406.386C215.565 407.061 215.671 407.648 215.884 408.148C216.099 408.648 216.402 409.036 216.793 409.312C217.187 409.589 217.649 409.727 218.179 409.727C218.527 409.727 218.844 409.667 219.128 409.545C219.412 409.424 219.652 409.25 219.849 409.023C220.046 408.795 220.187 408.523 220.27 408.205H221.611C221.535 408.72 221.348 409.184 221.048 409.597C220.753 410.006 220.361 410.331 219.872 410.574C219.387 410.812 218.823 410.932 218.179 410.932ZM227.116 410.932C226.329 410.932 225.637 410.744 225.043 410.369C224.452 409.994 223.99 409.47 223.656 408.795C223.327 408.121 223.162 407.333 223.162 406.432C223.162 405.523 223.327 404.729 223.656 404.051C223.99 403.373 224.452 402.847 225.043 402.472C225.637 402.097 226.329 401.909 227.116 401.909C227.904 401.909 228.594 402.097 229.185 402.472C229.779 402.847 230.241 403.373 230.571 404.051C230.904 404.729 231.071 405.523 231.071 406.432C231.071 407.333 230.904 408.121 230.571 408.795C230.241 409.47 229.779 409.994 229.185 410.369C228.594 410.744 227.904 410.932 227.116 410.932ZM227.116 409.727C227.715 409.727 228.207 409.574 228.594 409.267C228.98 408.96 229.266 408.557 229.452 408.057C229.637 407.557 229.73 407.015 229.73 406.432C229.73 405.848 229.637 405.305 229.452 404.801C229.266 404.297 228.98 403.89 228.594 403.58C228.207 403.269 227.715 403.114 227.116 403.114C226.518 403.114 226.026 403.269 225.639 403.58C225.253 403.89 224.967 404.297 224.781 404.801C224.596 405.305 224.503 405.848 224.503 406.432C224.503 407.015 224.596 407.557 224.781 408.057C224.967 408.557 225.253 408.96 225.639 409.267C226.026 409.574 226.518 409.727 227.116 409.727ZM233.118 410.75V402.023H234.413V403.341H234.504C234.663 402.909 234.951 402.559 235.368 402.29C235.785 402.021 236.254 401.886 236.777 401.886C236.875 401.886 236.999 401.888 237.146 401.892C237.294 401.896 237.406 401.902 237.482 401.909V403.273C237.436 403.261 237.332 403.244 237.169 403.222C237.01 403.195 236.841 403.182 236.663 403.182C236.239 403.182 235.86 403.271 235.527 403.449C235.197 403.623 234.936 403.866 234.743 404.176C234.554 404.483 234.459 404.833 234.459 405.227V410.75H233.118ZM242.464 410.932C241.624 410.932 240.898 410.746 240.288 410.375C239.682 410 239.214 409.477 238.885 408.807C238.559 408.133 238.396 407.348 238.396 406.455C238.396 405.561 238.559 404.773 238.885 404.091C239.214 403.405 239.673 402.871 240.26 402.489C240.851 402.102 241.54 401.909 242.328 401.909C242.783 401.909 243.232 401.985 243.675 402.136C244.118 402.288 244.521 402.534 244.885 402.875C245.249 403.212 245.538 403.659 245.754 404.216C245.97 404.773 246.078 405.458 246.078 406.273V406.841H239.351V405.682H244.714C244.714 405.189 244.616 404.75 244.419 404.364C244.226 403.977 243.949 403.672 243.589 403.449C243.233 403.225 242.813 403.114 242.328 403.114C241.794 403.114 241.332 403.246 240.942 403.511C240.555 403.773 240.258 404.114 240.05 404.534C239.841 404.955 239.737 405.405 239.737 405.886V406.659C239.737 407.318 239.851 407.877 240.078 408.335C240.309 408.79 240.629 409.136 241.038 409.375C241.447 409.61 241.923 409.727 242.464 409.727C242.817 409.727 243.135 409.678 243.419 409.58C243.707 409.477 243.955 409.326 244.163 409.125C244.372 408.92 244.533 408.667 244.646 408.364L245.942 408.727C245.805 409.167 245.576 409.553 245.254 409.886C244.932 410.216 244.535 410.473 244.061 410.659C243.588 410.841 243.055 410.932 242.464 410.932Z" fill="#666666"/>
<path d="M387 399.25L376 410.25L371 405.25" stroke="#47B935" stroke-width="3" stroke-linecap="round" stroke-linejoin="round"/>
<path d="M405.375 411.25C409.172 411.25 412.25 408.172 412.25 404.375C412.25 400.578 409.172 397.5 405.375 397.5C401.578 397.5 398.5 400.578 398.5 404.375C398.5 408.172 401.578 411.25 405.375 411.25Z" fill="#C5C5C5"/>
<path d="M405.5 400.5L405.5 405.5" stroke="white" stroke-width="2" stroke-linecap="round" stroke-linejoin="round"/>
<path d="M405.5 408.5H405.506" stroke="white" stroke-width="2" stroke-linecap="round" stroke-linejoin="round"/>
<path d="M498 399.25L487 410.25" stroke="#FF6C6C" stroke-width="3" stroke-linecap="round" stroke-linejoin="round"/>
<path d="M487 399.25L498 410.25" stroke="#FF6C6C" stroke-width="3" stroke-linecap="round" stroke-linejoin="round"/>
<defs>
<filter id="filter0_dd_12_678" x="0" y="0.5" width="634" height="109" filterUnits="userSpaceOnUse" color-interpolation-filters="sRGB">
<feFlood flood-opacity="0" result="BackgroundImageFix"/>
<feColorMatrix in="SourceAlpha" type="matrix" values="0 0 0 0 0 0 0 0 0 0 0 0 0 0 0 0 0 0 127 0" result="hardAlpha"/>
<feMorphology radius="22" operator="erode" in="SourceAlpha" result="effect1_dropShadow_12_678"/>
<feOffset dy="30"/>
<feGaussianBlur stdDeviation="24.5"/>
<feComposite in2="hardAlpha" operator="out"/>
<feColorMatrix type="matrix" values="0 0 0 0 0 0 0 0 0 0 0 0 0 0 0 0 0 0 0.1 0"/>
<feBlend mode="normal" in2="BackgroundImageFix" result="effect1_dropShadow_12_678"/>
<feColorMatrix in="SourceAlpha" type="matrix" values="0 0 0 0 0 0 0 0 0 0 0 0 0 0 0 0 0 0 127 0" result="hardAlpha"/>
<feMorphology radius="1" operator="dilate" in="SourceAlpha" result="effect2_dropShadow_12_678"/>
<feOffset dy="1"/>
<feGaussianBlur stdDeviation="1.5"/>
<feComposite in2="hardAlpha" operator="out"/>
<feColorMatrix type="matrix" values="0 0 0 0 0 0 0 0 0 0 0 0 0 0 0 0 0 0 0.15 0"/>
<feBlend mode="normal" in2="effect1_dropShadow_12_678" result="effect2_dropShadow_12_678"/>
<feBlend mode="normal" in="SourceGraphic" in2="effect2_dropShadow_12_678" result="shape"/>
</filter>
</defs>
</svg>
